<?xml version="1.0" encoding="utf-8"?>
<!-- Generator: Adobe Illustrator 23.0.3, SVG Export Plug-In . SVG Version: 6.00 Build 0)  -->
<svg version="1.1" id="Layer_1" xmlns="http://www.w3.org/2000/svg" xmlns:xlink="http://www.w3.org/1999/xlink" x="0px" y="0px"
	 viewBox="0 0 478.61 152.85" style="enable-background:new 0 0 478.61 152.85;" xml:space="preserve">
<style type="text/css">
	.st0{fill:#E3AB1C;}
	.st1{fill:#FFFFFF;}
</style>
<g id="Laag_2">
	<g id="Laag_1-2">
		<ellipse class="st0" cx="178.87" cy="103.47" rx="98.5" ry="47.58"/>
		<path class="st1" d="M14.27,51.55c-0.41-1.15,0.21-0.78,0.78-0.42c1.06,0.68,2.12,1.37,3.16,2.08c2.32,1.74,4.97,3,7.79,3.69
			c0.66,0.13,1,0.33,1.06,1.26c0,0.77-0.27,2.21,1.24,2.45c0.34,0,0.4,0.36,0.29,0.68s-0.09,0.92-0.69,1
			c-0.75,0.21-1.51,0.35-2.28,0.43c-3,0-6.09,0.1-8.95-1.37c-1.8-0.93-3.78-1.51-5.58-2.47c-2.48-1.26-4.55-3.19-6-5.56
			c-0.55-0.79-1.18-1.54-1.86-2.22C2,49.73,0.82,48.41,1.42,46.34C1.51,45.89,1.47,45.43,1.3,45c-1.07-3.12-0.8-6.42-1.24-9.64
			c-0.15-1.31,0.06-2.64,0.61-3.84c0.12-0.35,0.17-0.71,0.13-1.08c0.03-1.44,0.37-2.85,1-4.15c0.3-0.62,0.53-1.27,0.7-1.94
			c0.14-0.86,0.48-1.67,1-2.36c1.88-2.56,3.44-5.35,5.76-7.59c3-2.89,5.94-5.93,9.59-7.89c1.95-1,3.93-2.4,6.32-2.63
			c1.27-0.12,1.57,1,2.34,1.44S29.34,5,30,6c0.37,0.37,0.5,0.92,0.32,1.41c-0.48,1.38-0.92,2.78-1.54,4.12
			c-0.2,0.4-0.27,0.85-0.18,1.29c0.21,1.11-0.41,2.21-1.47,2.62c-3.03,1.42-5.89,3.16-8.54,5.2c-3.38,2.55-5.55,6.38-6,10.58
			c-0.36,3.65-1.16,7.23-1.57,10.87c-0.19,2.24,0.15,4.49,1,6.57C12.51,49.82,12.74,51.11,14.27,51.55z"/>
		<path class="st1" d="M50.06,16.7c-0.41,1.15,0.21,0.79,0.78,0.42C51.9,16.44,53,15.75,54,15c2.32-1.74,4.96-3,7.78-3.69
			c0.67-0.13,1-0.33,1.06-1.26c0-0.77-0.26-2.21,1.25-2.45c0.34,0,0.4-0.36,0.29-0.68s-0.09-0.92-0.69-1
			c-0.75-0.21-1.51-0.36-2.28-0.44c-3,0-6.09-0.1-8.95,1.37c-1.8,0.93-3.78,1.51-5.58,2.47c-2.48,1.26-4.55,3.19-6,5.56
			c-0.56,0.81-1.19,1.58-1.88,2.28c-1.19,1.36-2.41,2.69-1.81,4.75c0.08,0.44,0.04,0.9-0.12,1.32c-1.07,3.14-0.8,6.45-1.24,9.66
			c-0.15,1.31,0.06,2.64,0.61,3.84c0.12,0.35,0.17,0.71,0.13,1.08c0.03,1.44,0.37,2.85,1,4.15c0.3,0.62,0.53,1.27,0.7,1.94
			c0.14,0.86,0.48,1.67,1,2.36c1.88,2.56,3.44,5.35,5.76,7.6c3,2.89,5.94,5.92,9.59,7.89c1.95,1,3.93,2.4,6.32,2.62
			c1.27,0.12,1.57-1,2.34-1.44c0.77-0.44,1.84,0.36,2.54-0.65c0.37-0.36,0.5-0.91,0.32-1.4c-0.44-1.4-0.96-2.77-1.54-4.12
			c-0.2-0.4-0.27-0.86-0.18-1.3c0.21-1.1-0.38-2.2-1.42-2.62c-3.03-1.41-5.89-3.16-8.54-5.2c-3.37-2.54-5.55-6.37-6-10.57
			c-0.36-3.65-1.16-7.24-1.57-10.88c-0.19-2.24,0.15-4.49,1-6.57C48.3,18.43,48.53,17.14,50.06,16.7z"/>
		<path class="st1" d="M142.13,31.86c-1.85,4.22-3.33,8.5-5.58,12.45c-0.76,1.28-1.43,2.62-2,4c-0.3,0.77-0.55,1.67-1.67,1.69
			c-0.18,0-0.39,0.28-0.53,0.48c-1.39,2-3.44,3.18-5.39,4.47c-1.46,1-2.64,0.47-3.2-1.24c-0.98-3.29-1.76-6.62-2.36-10
			c-0.94-4.67-1.53-9.41-1.79-14.17c-0.31-5-0.93-10-1.36-14.95c-0.12-1.33-0.09-2.67,0.08-4c0.03-0.77,0.57-1.42,1.32-1.59
			c1.43-0.26,2.47-1.2,3.69-1.82s1.86-0.35,1.79,1c-0.42,7.38,1.44,14.4,3.31,21.41c1.06,4,1.34,8.11,2.34,12.1
			c0.21,0.86,0.41,1.73,0.65,2.76c0.67-1.06,1.16-2.23,1.44-3.46c1-3.21,2-6.47,2.92-9.71c0.81-2.73,0.62-5.57,1-8.36
			c0.49-3.71,0.97-7.42,1.46-11.13c0.08-0.57,0.27-1.11,0.55-1.61c0.31-0.57,0.92-0.92,1.57-0.88c1.3-0.1,2.65,0.1,3.85-0.77
			c0.88-0.62,3.91,0.19,4.62,1c0.63,0.8,1.16,1.68,1.57,2.62c1.07,2.78,1.72,5.71,1.93,8.68c0.56,4.53,1.2,9.05,1.78,13.57
			c0.37,2.92,1.07,5.73,1.76,8.9c0.84-1.87,1.55-3.45,2.27-5c2.57-5.79,5.18-11.55,7.85-17.3c0.48-1.39,0.87-2.8,1.17-4.24
			c0.29-1.03,0.66-2.03,1.11-3c0.23-0.47,0.48-1.07,1-1.15c1.03-0.15,1.89-0.86,2.23-1.84c0.13-0.44,0.54-0.73,1-0.71
			c0.41,0.12,0.68,0.52,0.62,0.95c0,1.52,0,2.8,2.1,2.8c0.57,0,0.85,0.75,0.76,1.47c-0.92,6.52-3.11,12.79-6.45,18.46
			c-2.57,4.59-4.77,9.36-7,14.14c-1.21,2.62-2.62,5.15-4,7.72c-0.14,0.29-0.4,0.58-0.4,0.87c0.1,1.22-0.45,2.41-1.44,3.13
			c-0.97,0.66-2.09,1.04-3.26,1.12c-0.55,0.1-1-0.75-1.71-0.93c-1-0.24-1.7-1.11-2.95-0.32c-0.7,0.44-1.5-0.41-1.84-1.34
			c-1.16-3.31-2.14-6.68-2.93-10.09c-0.85-3.9-1.35-7.87-1.49-11.86C142.55,34.74,142.3,33.3,142.13,31.86z"/>
		<path class="st1" d="M215,8.82c-0.21,0.75-0.28,1.53-0.22,2.3c0,1.47-0.81,2.33-2.27,2.2c-2.04-0.01-4.07-0.28-6.05-0.79
			c-1.66-0.58-3.09,0.59-4.68,0.65c-0.4,0-0.22,0.45-0.27,0.71c-1,3.89-1,7.9-1.65,11.83c0,0.16,0,0.33,0,0.49
			c-0.31,2.1-0.32,2.13,1.85,2.42c0.97,0.1,1.93,0.28,2.86,0.55c0.88,0.27,1.58,0.95,1.86,1.82c0.43,1.08,0.65,2.29,1.78,3
			c0.27,0.15,0.37,0.49,0.23,0.76c-0.04,0.07-0.09,0.13-0.16,0.18c-0.67,0.9-1.77,1.38-2.88,1.26c-2.54-0.38-5.1-0.54-7.67-0.5
			c-0.54-0.1-1.05,0.25-1.16,0.79c-1.65,4.38-3.53,8.68-5,13.14c-0.32,1.01-0.56,2.04-0.73,3.09c-0.16,1.22-0.62,2.38-1.33,3.38
			c-0.5,0.66-0.36,1.16,0.6,1.35c1.3,0.15,2.6,0.2,3.91,0.16c2.07,0.05,4.14,0.21,6.2,0.5c0.8,0.17,1.51,0.61,2,1.26
			c0.25,0.26,0.47,0.53,0.72,0.76s0,1.07-0.48,1.71l-2.22-0.23c-3.88-0.38-7.77-0.64-11.67-0.88c-2.24-0.14-4.48-0.23-6.73-0.28
			c-0.62-0.64-0.97-1.49-1-2.38c-0.07-0.45-0.11-1-0.15-1.54c-0.27-5.45,0.03-10.92,0.88-16.31c0.81-5.69,1.92-11.33,3.32-16.9
			c1.32-5.67,4.17-10.86,8.26-15c0.28-0.3,0.53-0.64,0.73-1c0.51-1.06,1.64-1.68,2.81-1.52c2.25,0.13,4.52-0.38,6.81-0.37
			c3.26-0.03,6.53,0.13,9.77,0.5c1.1,0.03,1.97,0.96,1.94,2.06C215.2,8.28,215.13,8.56,215,8.82z"/>
		<path class="st1" d="M313.89,66.25c-3.73,1.02-7.65,1.1-11.41,0.23c-2.65-0.69-3.26-1-4.05-5c-1.04-5.79-1.6-11.66-1.65-17.54
			c-0.14-6.19,0-12.36,0.38-18.48s1.86-12.09,5-17.08c0.2-0.36,0.36-0.73,0.49-1.12c0.41-1.19,0.89-1.88,2.22-2
			c2-0.14,3.88-0.95,5.88-1.22c2.84-0.43,5.71-0.66,8.58-0.66c1.41,0,2.25,1.28,2,2.91c-0.08,0.83-0.03,1.66,0.15,2.47
			c0.2,1.59-0.36,2.6-1.66,2.64c-1.79,0.05-3.57,0.38-5.38-0.12c-1.54-0.42-2.62,1-4,1.27c-0.34,0.07-0.11,0.51-0.13,0.79
			c-0.26,4.27,0.27,8.57,0.33,12.85c0,0.17,0,0.35,0,0.53c0,2.28,0,2.31,2,2.36c0.87-0.02,1.73,0.06,2.58,0.24
			c0.9,0.22,1.63,0.87,1.95,1.74c0.53,1.11,0.91,2.37,2,3c0.32,0.19,0.43,0.61,0.24,0.93c-0.01,0.02-0.03,0.05-0.05,0.07
			c-0.58,0.93-1.18,1.78-2.32,1.7c-2.26-0.1-4.53,0.03-6.76,0.39c-0.52,0.08-0.78,0.28-0.89,1c-0.79,4.88-1.78,9.71-2.39,14.65
			c-0.12,1.13-0.18,2.26-0.17,3.39c0.04,1.29-0.18,2.57-0.66,3.77c-0.33,0.78-0.14,1.3,0.73,1.37c1.15,0.01,2.29-0.09,3.42-0.3
			c1.82-0.21,3.66-0.28,5.49-0.21c1.09,0,1.83,1.1,2.62,1.83c0.6,0.54-0.4,3-1.27,3.18S315.11,66.08,313.89,66.25z"/>
		<path class="st1" d="M460.74,64.71c-4.33,0.47-8.72,0.04-12.88-1.25c-2.88-1-3.53-1.29-3.77-5.12C443.83,52.88,444.13,47.4,445,42
			c0.8-5.69,1.91-11.33,3.31-16.9c1.31-5.67,4.17-10.86,8.26-15c0.28-0.3,0.53-0.64,0.73-1c0.5-1.07,1.64-1.68,2.81-1.52
			c2.25,0.12,4.52-0.38,6.81-0.37c3.26-0.04,6.53,0.12,9.77,0.49c1.1,0.01,1.99,0.92,1.97,2.03c0,0.31-0.08,0.62-0.22,0.89
			c-0.21,0.74-0.28,1.52-0.21,2.29c0,1.48-0.82,2.33-2.28,2.2c-2.03-0.01-4.04-0.28-6-0.79c-1.67-0.58-3.1,0.59-4.69,0.66
			c-0.39,0-0.21,0.45-0.27,0.71c-1,3.88-1,7.89-1.65,11.83c0,0.16,0,0.32,0,0.48c-0.31,2.11-0.32,2.14,1.85,2.42
			c0.95,0.11,1.89,0.31,2.81,0.58c0.91,0.26,1.63,0.95,1.92,1.85c0.43,1.08,0.65,2.29,1.79,3c0.27,0.15,0.38,0.49,0.23,0.76
			c-0.04,0.08-0.1,0.14-0.17,0.19c-0.7,0.89-1.81,1.35-2.93,1.2c-2.54-0.38-5.1-0.54-7.67-0.49c-0.53-0.1-1.05,0.25-1.16,0.78
			c-1.65,4.39-3.53,8.68-5,13.14c-0.32,1.01-0.56,2.05-0.73,3.1c-0.15,1.21-0.59,2.37-1.28,3.38c-0.5,0.67-0.36,1.17,0.6,1.35
			c1.3,0.15,2.6,0.21,3.91,0.16c2.07,0.05,4.14,0.21,6.2,0.5c1.23,0.19,1.89,1.25,2.67,2c0.59,0.58-0.92,2.71-1.93,2.75
			S462.14,64.71,460.74,64.71z"/>
		<path class="st1" d="M236.38,21.48c-0.7,0.93-1.05,2.07-1,3.23c0.25,2.37,0.1,4.77,0.45,7.14c0.3,1.78,0.83,3.51,1.58,5.15
			c1.51,3.67,2.57,7.51,3.16,11.43c0.72,4.08,0.13,8.11-0.59,12.13c-0.29,1.59-1.43,2.89-2.47,4.19c-0.26,0.32-0.52,0.63-0.8,0.93
			c-0.61,0.67-1.25,1.31-1.94,1.9c-2.93-0.79-5.88-1.47-8.85-2.07l-2-0.4c1.06-0.48,2.02-1.16,2.83-2c0.43-0.46,0.8-0.99,1.09-1.55
			c0.35-0.7,0.09-1.31,0.11-2c0.16-2.91-0.23-5.82-1.15-8.59c-0.33-0.79-0.33-1.69,0-2.48c0.06-0.12,0.14-0.31,0.09-0.39
			c-1.17-1.67-0.84-3.61-1.32-5.4c-0.9-3.31-2.23-6.53-3-9.86c-0.9-3.87-1.66-7.76-0.33-11.65c0.94-2.5,2.31-4.81,4.05-6.83
			c0.79-0.84,1.53-1.72,2.21-2.65c0.55-0.87,1.66-1.2,2.51-1.77c1.54-1,6.75-2,8.67-2.49c1.1-0.4,2.33-0.02,3,0.93
			c0.71,0.89,1.86,3.39,3.18,3.75c0.37,0.1,0.38,1.56,0,1.85c-1.8,1.37-4.67,1.21-5.52,3.05C239.81,18.43,237.18,20.25,236.38,21.48
			z"/>
		<path class="st1" d="M285.5,11.28c-3.34,0-6.28,0.3-9.2-0.22c-0.85-0.15-1.24,0-1.21,1.06c0.1,5.26-0.15,10.53-0.76,15.76
			c-0.6,5.75-0.76,11.5-1.14,17.24c-0.1,1.43-0.4,2.84-0.62,4.26c-0.15,0.64-0.18,1.3-0.11,1.95c0.21,0.6,0.02,1.26-0.46,1.67
			c-0.07,0-0.17,0.12-0.16,0.17c0.11,1.11-0.02,2.22-0.4,3.27c-0.17,0.72,0,1.42-0.13,2.11c-0.19,1.77-0.48,3.52-0.87,5.25
			c-0.18,0.79-0.28,1.59-0.3,2.4c0,0.44-0.08,0.67-0.7,0.55c-0.75-0.21-1.53,0.22-1.74,0.97c-0.01,0.04-0.02,0.07-0.03,0.11
			c-0.06,0.7-0.68,1.21-1.38,1.15c-0.17-0.02-0.34-0.07-0.49-0.15c-1.29-0.51-2.72-0.58-4.05-0.18c-1.27,0.36-1.67,0-1.89-1.32
			c-0.6-3.35-0.94-6.74-1-10.14c0-5.42,0.47-10.82,0.55-16.24c0-1.15,0.57-2.23,0.43-3.42c-0.45-3.71,0.21-7.41,0.33-11.1
			c0.14-4.22-0.07-8.46,0.41-12.67c0.2-1.19,0.52-2.35,0.93-3.48c0.24-0.83,0.19-1.2-0.78-1.45c-1.38-0.36-2.72-0.85-4-1.48
			c-2.37-1.14-2.81-2.38-1.9-4.78c1.06-2.81,1.07-2.85,4-2.22c3,0.71,6.1,0.93,9.17,0.65c2.3-0.22,4.62-0.19,6.91,0.1
			c1.53,0.23,3.03,0.66,4.46,1.26c3.01,1.15,6.21,1.75,9.43,1.77c0.87,0,1.43,0.34,1.53,1.23c0.19,0.66,0.46,1.3,0.81,1.89
			c0.64,1.31,0.1,2.9-1.21,3.55c-0.25,0.12-0.51,0.2-0.79,0.24C287.94,11.25,286.72,11.33,285.5,11.28z"/>
		<path class="st1" d="M340.45,5.4c1.83-0.22,4.09,0.34,6.26-0.52c0.26-0.1,0.56-0.1,0.82,0c1.83,1.26,4,0.8,6,1.23
			c2.3,0.44,4.27,1.92,5.34,4c0.25,0.53,0.16,1.17-0.23,1.61c-0.31,0.47-0.76,0.41-1.2,0.33c-1.61-0.31-3.22-0.59-4.8-1
			c-0.82-0.19-1,0.11-1,0.85c-0.08,2.07,0.1,4.14,0.05,6.22c-0.1,4.48-1.2,8.79-1.87,13.18c-0.77,4.87-1.91,9.67-3.39,14.37
			c-0.46,1.52-0.82,3.06-1.1,4.62c-0.2,1.1,0.18,1.56,1.19,1.62c1.1,0.09,2.17,0.47,3.08,1.09c0.94,0.56,1.36,1.71,1,2.74
			c-0.08,0.63-0.65,1.08-1.28,1c-0.01,0-0.01,0-0.02,0c-1.43-0.08-2.87-0.15-4.27-0.14c-4.72,0-9.19-1.58-13.85-1.86
			c-1.3,0.03-2.38-0.99-2.42-2.29c-0.1-0.89,0.58-1.23,1.26-1.4c0.9-0.3,1.85-0.38,2.79-0.24c1,0.21,1.32-0.18,1.38-1.1
			c0.26-4.31,1.15-8.55,1.62-12.84c0.3-2.64,1.18-5.17,1.61-7.78c1-6.07,2.8-12,3.74-18.06c0.05-0.32,0-0.66,0.11-1
			c0.14-0.65-0.09-0.9-0.75-0.89c-1.36-0.04-2.71-0.29-4-0.73c-0.85-0.23-1.81-0.57-1.72-1.61s1.12-1,1.91-1.21
			C337.94,5.37,339.2,5.3,340.45,5.4z"/>
		<path class="st1" d="M393.14,43.71c0.17-1.32,0.21-2.66,0.29-4c0.26-4.27,0.41-8.55,0.52-12.83c0.09-6.32,0.59-12.63,1.52-18.88
			c0.1-0.67-0.17-1.66,0.92-1.88s1.74,0.56,2.2,1.38c1.1,2.1,1.74,4.41,1.89,6.78c0.09,2.11-0.05,4.22-0.43,6.29
			c-0.24,1.86,0,3.74-0.3,5.61c-0.51,3.63,0.12,7.32-0.38,10.92c-0.81,5.82-0.63,11.71-1.35,17.53c-0.04,0.2-0.04,0.41,0,0.61
			c0.44,1.49-0.4,2.81-0.53,4.23c-0.08,0.89-0.57-0.12-0.84,0c-0.09,0.77-0.1,0.77-0.73,0.87c-0.11,0.04-0.19,0.12-0.22,0.23
			c-0.18,0.97-1.11,1.6-2.08,1.42c-0.01,0-0.03-0.01-0.04-0.01c-1.53-0.1-2.91,0.71-4.5,0.43c-1.02-0.1-1.92-0.73-2.35-1.67
			c-1.25-2.74-2.26-5.58-3-8.5c-0.1-0.36-0.27-0.7-0.49-1c-0.76-1.15-1.28-2.44-1.52-3.8c0-0.12,0-0.27,0-0.36
			c-1.54-2.16-2.05-4.81-3.41-7.06s-2.37-4.83-3.88-7.07c-0.28-0.49-0.53-1-0.75-1.53c0,0.52-0.09,0.84-0.09,1.17
			c0.06,4.31,0.15,8.63,0.19,12.95c0,3-0.71,5.89-0.85,8.86c-0.12,2.6-0.7,5.16-0.6,7.79c0.1,2.39-1.1,3.58-3.35,3.42
			c-0.51,0-0.81-0.43-0.92-1c-0.76-3.79-1.26-7.64-1.48-11.5c-0.34-5.24,0.09-10.52-0.68-15.74c-0.25-2.23-0.33-4.47-0.26-6.71
			c0-3.25-0.6-6.51,0.18-9.76c0.31-0.83,0.44-1.72,0.39-2.61c-0.02-0.82,0.4-1.58,1.1-2c0.47-0.33,1-0.59,1-1.26
			c0-0.21,0.21-0.47,0.39-0.38c1,0.49,1.64-0.36,2.06-0.89c1-1.25,2.38-1.11,3.66-1.31c0.28-0.05,1.25-0.13,0.84,0.83
			c-0.11,0.23-0.03,0.51,0.19,0.64c2.79,2.19,4.43,5.32,6.45,8.11c4.64,6.42,8.28,13.5,10.8,21c-0.08,0.29,0.1,0.59,0.39,0.67
			C393.11,43.7,393.12,43.71,393.14,43.71z"/>
		<path class="st1" d="M436.77,25.06c-0.24-3.7-1.25-7.31-2.95-10.61c-0.45-0.77-0.95-1.52-1.48-2.24c-1-1.43-2.68-1.58-4-2.43
			c-1-0.75-2.33-0.92-3.49-0.43c-0.67,0.27-1.41,0.35-2.13,0.21c-2.78-0.43-3.85,0.24-4.78,2.9c-0.66,1.71-1.42,3.38-2.27,5
			c-0.72,1.51-2,2.62-2.66,4.2c-1.72,4.25-2.3,8.74-3,13.22c0.03,0.1,0.07,0.2,0.12,0.29c0.59-0.62,0.19-1.64,0.94-2.19
			c0.12,0.63-0.41,1.22-0.07,1.9c0.36-0.32,0.33-0.79,0.86-1c0.28,1.49-0.44,2.72-0.58,4c-0.28,2.7-1.27,5.27-1.11,8.06
			c-0.01,2.01-0.15,4.01-0.4,6c-0.26,2.6-0.13,5.22,0.36,7.79c0.15,0.64,0.31,0.9,1.07,0.59c1.23-0.51,2.5-1,3.86-0.28
			c0.41,0.21,0.91,0.21,1.32,0c1.25-0.5,2.55-0.83,3.88-1c1.15-0.28,2.22-0.82,3.13-1.58c1.81-1.46,3.43-3.12,5.11-4.73
			c2.79-2.6,4.89-5.86,6.08-9.48C436.48,37.39,437.23,31.21,436.77,25.06z M425.77,47.41c-0.7,0.96-1.54,1.8-2.49,2.5
			c-0.57,0.52-1,0.75-1-0.35c-0.72,0.21-0.3,0.94-0.71,1.22c-0.49-1.26-0.49-1.26,0.62-4.64c0.2,0.41-0.06,0.88,0.27,1.23
			c0.29-0.25,0.44-0.62,0.42-1c0.78-7.03,2.02-14,3.73-20.86c0.46-1.91,0.6-3.86,0.94-5.77c0-0.28,0-0.64,0.32-0.73
			s0.59,0.25,0.76,0.51c0.71,1.09,0.61,2.42,1,3.63c0.89,3.15,0.95,6.48,0.15,9.65c-0.04,0.24-0.07,0.49-0.07,0.73
			c0.02,0.14,0.06,0.28,0.11,0.41c0.51-0.18,0.43-0.68,0.63-0.81c0.63,5.45-2.02,9.87-4.7,14.28H425.77z"/>
		<path class="st1" d="M229.23,71.73c-0.08,0.25-0.1,0.5-0.07,0.76c0.04,0.36-0.22,0.69-0.58,0.73c-0.06,0.01-0.12,0.01-0.18,0
			c-0.67-0.01-1.35-0.1-2-0.26c-0.55-0.2-1,0.19-1.55,0.21c-0.13,0-0.07,0.15-0.09,0.24c-0.32,1.29-0.34,2.63-0.54,3.93
			c0,0.06,0,0.11,0,0.17c-0.11,0.69-0.11,0.71,0.61,0.8c0.34,0.02,0.68,0.09,1,0.19c0.3,0.08,0.55,0.31,0.64,0.61
			c0.15,0.35,0.22,0.76,0.6,1c0.09,0.05,0.11,0.16,0.06,0.25c-0.02,0.03-0.04,0.05-0.06,0.06c-0.22,0.32-0.61,0.49-1,0.42
			c-0.84-0.13-1.7-0.18-2.55-0.16c-0.18-0.03-0.35,0.08-0.39,0.26c-0.54,1.45-1.17,2.88-1.65,4.37c-0.11,0.33-0.19,0.66-0.25,1
			c-0.05,0.4-0.2,0.79-0.44,1.12c-0.17,0.23-0.12,0.4,0.2,0.45c0.43,0.06,0.87,0.08,1.31,0.06c0.67,0.01,1.34,0.07,2,0.17
			c0.41,0.06,0.64,0.41,0.89,0.67s-0.3,0.9-0.64,0.91s-0.76,0-1.23,0c-1.44,0.15-2.89,0.01-4.27-0.42c-1-0.32-1.18-0.43-1.27-1.7
			c-0.08-1.82,0.02-3.63,0.3-5.43c0.26-1.89,0.64-3.77,1.11-5.62c0.43-1.89,1.38-3.62,2.75-5c0.09-0.1,0.17-0.21,0.24-0.32
			c0.16-0.35,0.54-0.56,0.93-0.5c0.75,0,1.5-0.13,2.27-0.13c1.08-0.01,2.16,0.04,3.24,0.16c0.38-0.01,0.68,0.29,0.69,0.67
			C229.31,71.51,229.28,71.63,229.23,71.73z"/>
		<path class="st1" d="M127.94,72.17c-0.16,0.46-0.31,0.93-0.51,1.37c-0.07,0.13-0.09,0.28-0.07,0.43c0.07,0.37-0.13,0.74-0.48,0.87
			c-1.02,0.47-1.98,1.05-2.88,1.73c-1.12,0.85-1.85,2.12-2,3.52c-0.12,1.21-0.39,2.41-0.52,3.62c-0.06,0.74,0.05,1.49,0.33,2.18
			c0.15,0.4,0.22,0.83,0.73,1c-0.13-0.38,0.08-0.26,0.27-0.14l1,0.69c0.77,0.58,1.65,1,2.59,1.23c0.23,0,0.34,0.11,0.35,0.42
			s-0.08,0.73,0.42,0.81c0.11,0,0.14,0.12,0.1,0.23s0,0.31-0.23,0.34c-0.25,0.08-0.5,0.12-0.76,0.14c-1.02,0.1-2.05-0.05-3-0.45
			c-0.6-0.31-1.25-0.5-1.85-0.82c-0.83-0.42-1.52-1.06-2-1.85c-0.18-0.27-0.38-0.52-0.61-0.75c-0.39-0.45-0.8-0.9-0.6-1.58
			c0.04-0.14,0.04-0.3,0-0.44c-0.25-1.05-0.38-2.13-0.41-3.21c-0.05-0.44,0.02-0.88,0.2-1.28c0.03-0.12,0.03-0.24,0-0.36
			c0.01-0.48,0.13-0.95,0.34-1.38c0.1-0.21,0.18-0.43,0.23-0.65c0.07-0.31,0.21-0.6,0.42-0.84c0.56-0.9,1.21-1.75,1.92-2.53
			c0.93-1.02,2-1.9,3.18-2.62c0.64-0.43,1.36-0.72,2.11-0.87c0.41,0,0.52,0.32,0.77,0.48s0.61-0.12,0.85,0.21
			C127.97,71.8,128.01,72,127.94,72.17z"/>
		<path class="st1" d="M140.5,77.52c0.19-0.65,0.19-1.35,0-2c-0.54-1.9-1.58-3.63-3-5c-0.9-0.94-2.4-0.97-3.34-0.06
			c-0.02,0.02-0.04,0.04-0.06,0.06c-0.11,0.1-0.22,0.19-0.34,0.27c-0.9,0.66-1.67,1.48-2.26,2.42c-0.95,1.61-1.66,3.35-2.1,5.16
			c-0.4,1.76-0.67,3.54-0.79,5.34c-0.13,0.97,0.03,1.95,0.47,2.82c0.41-0.52,0.24-1.17,0.28-1.77c0-0.34-0.12-0.75,0.1-1
			c0.42-0.52,0.2-1.11,0.3-1.65c0.01-0.04,0.01-0.07,0-0.11c-0.39,0.14-0.14-0.14-0.13-0.22c0-0.46,0.07-0.92,0.53-1.19
			c0.07-0.08,0.12-0.16,0.16-0.26c0.31-0.67,0.55-1.38,0.71-2.1c0.09-0.32,0.05-0.53-0.36-0.38c0.56-2.46,1.3-4.22,2-4.79
			c-0.65,2.13-0.93,4.32-1.38,6.47s-0.84,4.29-1.46,6.44c-0.17-0.21,0-0.45-0.27-0.6c0.22,0.93,0.11,1.92-0.31,2.78
			c-0.09-0.21,0-0.41-0.18-0.56c0,0,0,0.05,0,0.07c0.13,1.19,0.36,2.37,0.68,3.52c0,0.07,0.06,0.12,0.12,0.11
			c0.31-0.06,0.58,0.15,0.89,0.13c0.3-0.05,0.6,0.02,0.85,0.18c0.3,0.26,0.46,0.1,0.64-0.12c0.39-0.51,0.68-1.09,0.85-1.71
			c0.45-1.62,0.76-3.28,1.15-4.93c0.2-0.86,0.38-1.73,0.56-2.6c0.07-0.42,0.38-0.36,0.66-0.37s0.29,0.23,0.31,0.43
			c0.1,1.25,0.3,2.48,0.59,3.7c0.29,1.56,0.5,3.13,0.63,4.71c0,0.27,0.19,0.51,0.46,0.57c0.71,0.2,1.47,0.15,2.16-0.13
			c0.85-0.24,0.85-0.3,0.83-1.21c0-1.38,0-2.77-0.1-4.15c0-0.61,0-1.22-0.11-1.83c-0.25-1.03-0.58-2.03-1-3
			c-0.06-0.19-0.1-0.31,0-0.46C139.91,79.63,140.35,78.61,140.5,77.52z M138.64,77.95c-0.08,0.34-0.25,0.66-0.48,0.92
			c-0.46,0.52-1.14,0.8-1.84,0.74c-1,0-0.81,0-0.51-0.72c0.24-0.69,0.36-1.4,0.37-2.13c0.09-1.27,0.39-2.5,0.58-3.75
			c0-0.15,0.06-0.39,0.24-0.42s0.26,0.16,0.37,0.27c0.58,0.7,1.09,1.47,1.5,2.28C139.4,76.12,139,77,138.64,78V77.95z"/>
		<path class="st1" d="M153.57,71.89c-0.04,0.25-0.04,0.52,0,0.77c0,0.5-0.25,0.79-0.74,0.76c-0.67,0.01-1.34-0.06-2-0.21
			c-0.55-0.18-1,0.22-1.54,0.26c-0.14,0-0.07,0.15-0.09,0.24c-0.28,1.3-0.27,2.64-0.43,4c0,0.05,0,0.11,0,0.16
			c-0.09,0.7-0.09,0.72,0.64,0.78c0.32,0.03,0.64,0.08,0.95,0.16c0.3,0.09,0.55,0.31,0.66,0.6c0.15,0.35,0.23,0.76,0.62,1
			c0.09,0.06,0.11,0.18,0.05,0.26c-0.01,0.02-0.03,0.03-0.05,0.05c-0.23,0.32-0.61,0.5-1,0.45c-0.85-0.1-1.7-0.13-2.55-0.1
			c-0.18-0.02-0.34,0.1-0.38,0.28c-0.51,1.47-1.09,2.91-1.53,4.41c-0.09,0.33-0.16,0.66-0.21,1c-0.04,0.4-0.18,0.79-0.41,1.13
			c-0.16,0.23-0.11,0.4,0.21,0.45c0.43,0.03,0.87,0.03,1.3,0c0.69,0,1.38,0.04,2.06,0.11c0.41,0,0.65,0.4,0.91,0.64
			s-0.28,0.91-0.61,0.94s-0.76,0-1.22,0c-1.44,0.2-2.9,0.1-4.3-0.29c-1-0.29-1.18-0.4-1.3-1.67c-0.14-1.81-0.1-3.63,0.14-5.43
			c0.21-1.9,0.53-3.78,0.94-5.65c0.37-1.9,1.27-3.66,2.6-5.08c0.09-0.1,0.17-0.21,0.24-0.33c0.16-0.36,0.53-0.58,0.92-0.53
			c0.75,0,1.5-0.17,2.26-0.18c1.08-0.05,2.17-0.03,3.25,0.06c0.37,0,0.67,0.29,0.68,0.66C153.64,71.7,153.61,71.8,153.57,71.89z"/>
		<path class="st1" d="M201.31,71.19c-0.05,0.27-0.05,0.55,0,0.82c0,0.52-0.22,0.85-0.73,0.85c-0.72,0.06-1.45,0.04-2.16-0.08
			c-0.6-0.15-1.07,0.3-1.62,0.38c-0.14,0-0.07,0.16-0.08,0.26c-0.21,1.4-0.1,2.81-0.2,4.21c0.01,0.06,0.01,0.12,0,0.18
			c0,0.75,0,0.76,0.74,0.79c0.34,0,0.67,0.04,1,0.1c0.33,0.06,0.6,0.28,0.73,0.59c0.2,0.37,0.31,0.78,0.73,1
			c0.14,0.07,0.16,0.2,0,0.33c-0.21,0.35-0.59,0.55-1,0.53c-0.9-0.04-1.81-0.02-2.71,0.08c-0.19-0.01-0.36,0.13-0.39,0.32
			c-0.44,1.59-1,3.16-1.33,4.78c-0.07,0.37-0.13,0.74-0.16,1.11c-0.01,0.43-0.14,0.86-0.36,1.23c-0.15,0.25-0.09,0.43,0.26,0.46
			c0.46,0.01,0.92-0.01,1.38-0.06c0.73-0.05,1.47-0.05,2.2,0c0.44,0,0.71,0.38,1,0.62s-0.24,1-0.59,1s-0.8,0.07-1.3,0.12
			c-1.51,0.31-3.07,0.31-4.58,0c-1-0.26-1.28-0.35-1.49-1.68c-0.27-1.91-0.34-3.85-0.21-5.78c0.1-2.01,0.3-4.01,0.62-6
			c0.27-2.05,1.11-3.98,2.42-5.57c0.09-0.12,0.17-0.24,0.23-0.37c0.16-0.38,0.53-0.63,0.94-0.62c0.79,0,1.58-0.28,2.38-0.35
			c1.15-0.12,2.3-0.17,3.46-0.15c0.39-0.07,0.77,0.19,0.83,0.58C201.34,70.98,201.34,71.09,201.31,71.19z"/>
		<path class="st1" d="M163.08,74.92c0-0.28-0.1-0.56-0.29-0.77c0.18,1.62,0.21,3.26,0.1,4.89c0-0.39-0.15-0.78-0.15-1.15
			c-0.05-1.07-0.17-2.11-0.31-3.15c-0.07-0.4-0.09-0.81-0.07-1.21c0.06-0.67,0.23-1.42-0.26-2s-0.34-1.13-1.06-1.18
			c0,0-0.08-0.07-0.11-0.12s-0.25-0.15-0.41,0c-0.33,0.28-0.74,0.45-1.17,0.5c-0.31,0.04-0.56,0.25-0.66,0.54
			c-0.32,0.81-0.74,1.6-1.05,2.42c-0.59,1.62-1.35,3.17-1.83,4.83c-0.54,1.87-1.05,3.76-1.61,5.63c-0.44,1.31-0.7,2.68-0.76,4.06
			c0,0.26-0.06,0.51-0.06,0.77s0.1,0.45,0.43,0.33c0.19-0.09,0.4-0.12,0.6-0.09c0.46,0.19,0.84-0.17,1.11-0.33
			c0.43-0.29,0.75-0.71,0.93-1.19c0.24-0.73,0.42-1.47,0.54-2.23c0.2-0.87,0.52-1.69,0.67-2.57c0.06,0.13,0.06,0.27,0,0.4
			c-0.04,0.12,0.03,0.26,0.15,0.3c0.15,0.07,0.22,0,0.28-0.16s0.11-0.21,0.16-0.32c0.07-0.2,0.29-0.32,0.49-0.25
			c0.64,0.13,1.29,0.2,1.94,0.2c0.27,0,0.35,0.07,0.32,0.36c-0.09,0.81-0.13,1.62-0.19,2.43c-0.07,1.11,0,2.22-0.18,3.32
			c-0.06,0.66,0.32,1.29,0.94,1.54c0.09,0,0.16,0,0.19-0.05s0.22-0.18,0.38-0.19c0.67,0,0.75-0.12,0.72-0.78
			c-0.14-1.14-0.16-2.29-0.07-3.44c0-0.82,0.06-1.64,0.17-2.45c0.16-0.74,0.21-1.5,0.15-2.26c0-0.68,0-1.37,0-2
			C163.22,78.01,163.21,76.46,163.08,74.92z M160.71,80.92c-0.48-0.04-0.96-0.14-1.42-0.29c-0.75-0.13-0.72-0.13-0.68-0.9
			c0.07-0.5,0.19-1,0.36-1.48c0.29-1.4,0.9-2.69,1.29-4.07c0-0.09,0.08-0.19,0.11-0.28c0,0.84,0.22,1.64,0.2,2.47
			c0,0.6,0.19,1.21,0.17,1.8c0,0.88,0.17,1.72,0.17,2.58c0,0.15-0.07,0.13-0.2,0.15V80.92z"/>
		<path class="st1" d="M178.38,72.85c-0.42,0.07-0.85,0.09-1.27,0.06c-1.08,0.07-2.16,0.05-3.23-0.07c-0.29,0-0.42,0-0.42,0.37
			c0.03,1.84-0.05,3.69-0.26,5.52c-0.21,2-0.27,4-0.4,6c0,0.49-0.14,1-0.22,1.49c-0.04,0.22-0.04,0.46,0,0.68
			c0.08,0.21,0,0.45-0.18,0.59c0,0-0.06,0-0.05,0.06c0.03,0.39-0.01,0.77-0.14,1.14c-0.06,0.25,0,0.5,0,0.74
			c-0.13,0.61-0.12,1.23-0.31,1.84c-0.07,0.27-0.1,0.56-0.11,0.84c0,0.15,0,0.23-0.24,0.19c-0.27-0.07-0.54,0.09-0.61,0.35
			c0,0.01,0,0.02-0.01,0.03c-0.03,0.25-0.26,0.42-0.51,0.38c-0.05-0.01-0.1-0.02-0.14-0.04c-0.45-0.18-0.95-0.2-1.42-0.07
			c-0.45,0.13-0.59,0-0.66-0.46c-0.22-1.17-0.33-2.36-0.35-3.55c0-1.89,0.16-3.78,0.2-5.68c0.08-0.39,0.13-0.79,0.15-1.19
			c-0.06-1.3-0.03-2.6,0.11-3.89c0-1.48,0-3,0.15-4.44c0.07-0.41,0.17-0.82,0.32-1.21c0.08-0.29,0.07-0.42-0.27-0.51
			c-0.49-0.12-0.96-0.29-1.41-0.51c-0.6-0.15-0.96-0.76-0.81-1.36c0.03-0.11,0.07-0.22,0.14-0.32c0.38-1,0.38-1,1.4-0.77
			c1.05,0.25,2.14,0.33,3.22,0.25c0.8-0.09,1.62-0.09,2.42,0c0.54,0.08,1.06,0.23,1.56,0.44c1.05,0.41,2.17,0.61,3.3,0.61
			c0.26-0.04,0.5,0.14,0.54,0.39c0,0.02,0,0.03,0,0.05c0,0.25,0.2,0.43,0.28,0.66c0.25,0.45,0.1,1.01-0.35,1.27
			C178.67,72.8,178.53,72.84,178.38,72.85z"/>
		<path class="st1" d="M189.33,73.33c-0.1,0.16-0.25,0.14-0.4,0.11c-0.54-0.1-1.07-0.19-1.6-0.32c-0.27-0.06-0.32,0-0.33,0.29
			c0,0.69,0,1.38,0,2.07c-0.12,1.47-0.33,2.93-0.63,4.38c-0.26,1.62-0.63,3.22-1.13,4.78c-0.15,0.51-0.27,1.02-0.37,1.54
			c-0.06,0.36,0.06,0.51,0.4,0.54c0.36,0.02,0.7,0.15,1,0.35c0.32,0.18,0.47,0.56,0.35,0.91c-0.03,0.21-0.22,0.37-0.43,0.34
			c0,0,0,0-0.01,0c-0.47,0-0.95,0-1.42,0c-1.57,0-3.06-0.52-4.6-0.61c-0.43,0.01-0.79-0.34-0.81-0.77c0-0.29,0.2-0.41,0.42-0.47
			c0.3-0.09,0.62-0.12,0.93-0.07c0.33,0.07,0.44-0.06,0.45-0.37c0.09-1.43,0.39-2.84,0.54-4.27c0.11-0.88,0.4-1.71,0.54-2.58
			c0.33-2,0.93-4,1.24-6c0-0.11,0-0.22,0-0.32s0-0.3-0.24-0.3c-0.45-0.02-0.89-0.1-1.32-0.24c-0.28-0.08-0.61-0.19-0.57-0.54
			s0.37-0.34,0.63-0.4c0.4-0.08,0.81-0.1,1.22-0.08c0.7,0.04,1.4-0.01,2.08-0.16c0.09-0.04,0.19-0.04,0.28,0
			c0.61,0.42,1.34,0.27,2,0.41c0.76,0.15,1.42,0.64,1.77,1.33C189.4,73.02,189.41,73.19,189.33,73.33z"/>
		<path class="st1" d="M215.46,72.88c-0.13,1.59-0.46,3.16-1,4.66c-0.09,0.27-0.13,0.55-0.12,0.83c-0.01,0.62-0.11,1.24-0.29,1.84
			c-0.46,1.63-1.08,3.21-1.86,4.71c-0.29,0.5-0.56,1.02-0.8,1.55c-0.18,0.52-0.41,1-0.61,1.54c-0.1,0.29-0.24,0.58-0.61,0.61
			c-0.07,0-0.13,0.1-0.18,0.16c-0.13,0.14-0.24,0.29-0.34,0.45c-0.45,0.72-1.26,1.14-2.11,1.09c-0.36,0-0.56-0.19-0.72-0.5
			c-0.4-0.96-0.67-1.97-0.78-3c-0.39-2.25-0.71-4.52-1.06-6.77c-0.15-1-0.32-2-0.44-2.93c-0.2-0.99-0.33-1.99-0.4-3
			c0.06-0.55,0.06-1.11,0-1.66c-0.07-0.31,0.21-0.48,0.48-0.57c0.24-0.06,0.45-0.18,0.63-0.35c0.15-0.15,0.35-0.23,0.56-0.22
			c0.38-0.01,0.75-0.13,1.07-0.34c0.37-0.22,0.48-0.12,0.74,0.23c0.81,1.4,1.27,2.98,1.33,4.6c0.2,1.38,0.54,2.73,0.77,4.11
			s0.44,2.56,0.57,3.85c0,0,0,0,0.07,0.1c0.29-0.47,0.53-0.97,0.69-1.5c0.27-0.77,0.45-1.56,0.53-2.37c0.36-1.57,0.86-3.11,1.48-4.6
			c0.36-1.08,0.73-2.16,1.09-3.23c0.18-0.38,0.38-0.74,0.61-1.09c0.15-0.31,0.4-0.22,0.55,0.13
			C215.5,71.75,215.55,72.32,215.46,72.88z"/>
		<path class="st1" d="M183.76,105.47c-0.76,0.11-1.52,0.11-2.28,0c-0.66-0.17-1.11,0.43-1.68,0.54c-0.15,0-0.05,0.22-0.06,0.33
			c-0.11,1.82,0.12,3.63,0.13,5.44c0,0.07,0,0.15,0,0.22c0,1,0,1,0.83,1c0.37,0,0.73,0.03,1.09,0.1c0.38,0.09,0.69,0.37,0.83,0.74
			c0.22,0.46,0.38,1,0.84,1.25c0.14,0.08,0.18,0.26,0.1,0.4c-0.01,0.01-0.01,0.02-0.02,0.03c-0.24,0.39-0.5,0.75-1,0.71
			c-0.96-0.04-1.91,0.02-2.86,0.17c-0.22,0-0.32,0.11-0.37,0.41c-0.34,2.07-0.76,4.11-1,6.2c-0.05,0.48-0.07,0.96-0.06,1.44
			c0.02,0.53-0.06,1.06-0.25,1.55c-0.14,0.33,0,0.55,0.31,0.58c0.49,0,0.98-0.04,1.46-0.13c0.77-0.08,1.54-0.11,2.31-0.09
			c0.46,0,0.78,0.47,1.11,0.78s-0.17,1.27-0.53,1.35s-0.85,0.11-1.36,0.19c-1.58,0.43-3.24,0.46-4.83,0.1
			c-1.12-0.29-1.38-0.41-1.71-2.12c-0.44-2.45-0.67-4.94-0.7-7.43c-0.06-2.62,0-5.22,0.16-7.81c0.09-2.54,0.81-5.03,2.1-7.22
			c0.09-0.15,0.15-0.31,0.2-0.48c0.18-0.51,0.38-0.79,0.94-0.83c0.84-0.06,1.65-0.41,2.49-0.52c1.2-0.18,2.41-0.28,3.63-0.28
			c0.6,0,0.95,0.54,0.83,1.23c-0.02,0.33,0,0.67,0.07,1C184.54,105,184.31,105.46,183.76,105.47z"/>
		<path class="st1" d="M250.31,109.05c-0.12,0.15-0.33,0.2-0.51,0.13c-0.68-0.12-1.37-0.25-2-0.4c-0.35-0.08-0.42,0-0.43,0.36
			c0,0.88,0,1.75,0,2.63c-0.15,1.87-0.41,3.74-0.79,5.58c-0.34,2.05-0.82,4.08-1.44,6.07c-0.19,0.66-0.34,1.33-0.46,2
			c-0.09,0.46,0.07,0.66,0.5,0.68c0.46,0.04,0.91,0.19,1.3,0.45c0.39,0.24,0.57,0.72,0.43,1.16c-0.03,0.27-0.28,0.47-0.55,0.44
			c-0.6,0-1.21-0.07-1.8-0.07c-2,0-3.89-0.66-5.86-0.78c-0.55,0-1-0.45-1-1c0-0.38,0.25-0.52,0.54-0.6c0.38-0.12,0.78-0.15,1.18-0.1
			c0.42,0.09,0.56-0.07,0.58-0.46c0.11-1.83,0.49-3.61,0.69-5.43c0.12-1.12,0.5-2.19,0.68-3.29c0.42-2.57,1.18-5.06,1.58-7.64
			c0-0.14,0-0.28,0.05-0.41s0-0.38-0.32-0.37c-0.57-0.02-1.14-0.13-1.68-0.31c-0.35-0.1-0.76-0.24-0.71-0.69s0.47-0.44,0.8-0.51
			c0.51-0.1,1.03-0.13,1.55-0.1c0.89,0.06,1.78-0.01,2.65-0.21c0.1,0,0.27-0.08,0.34,0c0.78,0.54,1.71,0.33,2.55,0.52
			c0.97,0.19,1.81,0.81,2.27,1.69C250.53,108.62,250.47,108.87,250.31,109.05z"/>
		<path class="st1" d="M115,104.82c0,0.14,0,0.27-0.16,0.27c-0.65,0-0.6,0.63-0.66,1s-0.24,0.45-0.52,0.47
			c-1.22,0.12-2.41,0.49-3.48,1.09c-0.47,0.24-1,0.46-1.44,0.69c-0.26,0.12-0.55,0.23-0.3-0.23c-0.67,0.1-0.84,0.63-1.09,1.1
			c-0.48,0.82-0.76,1.75-0.81,2.7c0,1.54,0.08,3.09,0,4.64c-0.05,1.79,0.63,3.51,1.89,4.78c0.99,1.01,2.09,1.91,3.28,2.68
			c0.41,0.23,0.61,0.73,0.46,1.18c-0.07,0.18-0.07,0.37,0,0.55c0.17,0.6,0.27,1.21,0.4,1.82c0.06,0.28-0.06,0.4-0.22,0.57
			c-0.35,0.39-0.78,0-1.1,0.13s-0.55,0.59-1.06,0.47c-0.92-0.32-1.77-0.82-2.5-1.47c-1.35-1.12-2.55-2.43-3.55-3.87
			c-0.77-1.11-1.44-2.29-2-3.52c-0.16-0.31-0.25-0.65-0.27-1c-0.03-0.29-0.1-0.57-0.18-0.85c-0.19-0.58-0.25-1.19-0.18-1.79
			c0.04-0.15,0.04-0.31,0-0.46c-0.15-0.54-0.15-1.11,0-1.65c0.24-1.36,0.6-2.7,1.09-4c0.09-0.16,0.14-0.35,0.13-0.54
			c-0.13-0.9,0.46-1.39,1-1.89c0.33-0.25,0.63-0.53,0.9-0.84c0.74-0.92,1.73-1.61,2.85-2c0.81-0.3,1.67-0.43,2.48-0.71
			c1.26-0.31,2.58-0.31,3.84,0c0.32,0.07,0.63,0.18,0.93,0.31C115,104.43,115,104.65,115,104.82z"/>
		<path class="st1" d="M202.71,111.38c0.26-0.84,0.26-1.73,0-2.57c-0.7-2.39-2.01-4.56-3.81-6.29c-1.15-1.19-3.05-1.23-4.24-0.08
			c-0.03,0.03-0.05,0.05-0.08,0.08c-0.13,0.13-0.28,0.25-0.43,0.35c-1.14,0.84-2.11,1.88-2.87,3.07c-1.21,2.05-2.12,4.26-2.68,6.57
			c-0.51,2.24-0.84,4.51-1,6.8c-0.16,1.23,0.04,2.47,0.59,3.58c0.53-0.67,0.32-1.49,0.37-2.25c0-0.44-0.16-1,0.13-1.3
			c0.53-0.66,0.24-1.41,0.37-2.1c-0.01-0.05-0.03-0.1-0.05-0.14c-0.49,0.18-0.18-0.18-0.16-0.28c0.05-0.58,0.08-1.16,0.66-1.51
			c0.1-0.06,0.15-0.21,0.21-0.33c0.39-0.86,0.7-1.75,0.9-2.67c0.11-0.4,0.07-0.68-0.45-0.49c0.71-3.12,1.65-5.36,2.55-6.1
			c-0.83,2.73-1.18,5.5-1.75,8.23s-1.06,5.47-1.86,8.2c-0.21-0.27,0-0.58-0.34-0.76c0.29,1.19,0.15,2.44-0.39,3.53
			c-0.13-0.26,0-0.52-0.23-0.72c0,0-0.06,0.07-0.06,0.09c0,1.55,0.64,3,0.87,4.48c0,0.09,0.07,0.15,0.14,0.15
			c0.41-0.09,0.75,0.19,1.15,0.15c0.37-0.05,0.76,0.03,1.07,0.24c0.38,0.32,0.6,0.12,0.82-0.16c0.51-0.64,0.87-1.37,1.08-2.16
			c0.58-2.08,1-4.19,1.46-6.28c0.25-1.09,0.48-2.2,0.71-3.31c0.1-0.52,0.49-0.45,0.85-0.46s0.37,0.29,0.38,0.54
			c0.13,1.59,0.39,3.16,0.76,4.71c0.37,1.98,0.63,3.99,0.79,6c0.01,0.35,0.25,0.65,0.59,0.73c0.91,0.25,1.88,0.19,2.75-0.17
			c1.09-0.31,1.08-0.39,1.06-1.54c0-1.76,0-3.52-0.13-5.28c0-0.77,0-1.55-0.14-2.33c-0.33-1.33-0.76-2.62-1.31-3.87
			c-0.08-0.25-0.12-0.41,0.06-0.6C201.92,114.05,202.5,112.75,202.71,111.38z M200.34,111.94c-0.32,1.36-1.61,2.27-3,2.11
			c-1.25,0-1,0-0.65-0.92c0.31-0.87,0.48-1.79,0.5-2.72c0.1-1.6,0.48-3.17,0.72-4.75c0-0.2,0.08-0.5,0.31-0.55s0.33,0.2,0.46,0.36
			c0.75,0.89,1.39,1.86,1.91,2.9C201.3,109.62,200.77,110.79,200.34,111.94L200.34,111.94z"/>
		<path class="st1" d="M266.31,103.62c-0.06,0.33-0.06,0.67,0,1c0.06,0.67-0.26,1.08-0.92,1.09c-0.91,0.08-1.83,0.04-2.74-0.11
			c-0.77-0.19-1.36,0.4-2.07,0.49c-0.18,0-0.08,0.21-0.1,0.32c-0.26,1.78-0.14,3.59-0.25,5.38c0.01,0.07,0.01,0.14,0,0.21
			c-0.05,1-0.05,1,0.93,1c0.44,0.01,0.87,0.05,1.3,0.14c0.42,0.07,0.78,0.35,0.94,0.75c0.23,0.46,0.39,1,0.93,1.25
			c0.13,0.06,0.18,0.2,0.13,0.33c-0.02,0.03-0.04,0.07-0.07,0.09c-0.26,0.43-0.73,0.7-1.24,0.69c-1.15-0.07-2.3-0.04-3.45,0.09
			c-0.24-0.02-0.46,0.16-0.49,0.4c-0.56,2-1.23,4-1.69,6.08c-0.1,0.47-0.16,0.94-0.2,1.42c-0.02,0.55-0.18,1.08-0.45,1.56
			c-0.21,0.32-0.12,0.55,0.32,0.59c0.59,0.01,1.18-0.02,1.76-0.09c0.93-0.06,1.86-0.06,2.79,0c0.56,0,0.9,0.48,1.28,0.8
			c0.01,0.02,0.01,0.04,0,0.06c0.16,0.3-0.37,1.19-0.79,1.25l-0.73,0.07l-0.91,0.08c-1.92,0.4-3.91,0.4-5.83,0
			c-1.33-0.31-1.63-0.43-1.89-2.14c-0.35-2.43-0.45-4.88-0.28-7.33c0.12-2.58,0.39-5.16,0.79-7.71c0.35-2.6,1.42-5.05,3.09-7.08
			c0.11-0.14,0.2-0.3,0.28-0.46c0.16-0.54,0.69-0.89,1.25-0.84c1,0,2-0.36,3-0.45c1.46-0.15,2.92-0.22,4.39-0.19
			c0.5-0.05,0.94,0.32,0.99,0.82C266.39,103.33,266.37,103.48,266.31,103.62z"/>
		<path class="st1" d="M218,107.66c0-0.37-0.13-0.73-0.38-1c0.23,2.06,0.27,4.14,0.13,6.21c0-0.49-0.18-1-0.2-1.46
			c-0.05-1.35-0.21-2.67-0.39-4c-0.09-0.51-0.11-1.03-0.08-1.54c0.07-0.84,0.3-1.8-0.33-2.49c-0.46-0.48-0.43-1.43-1.35-1.49
			c0,0-0.1-0.09-0.14-0.15c-0.16-0.22-0.32-0.19-0.52,0c-0.42,0.36-0.94,0.59-1.49,0.64c-0.39,0.04-0.72,0.31-0.84,0.68
			c-0.41,1-1,2-1.33,3.09c-0.75,2-1.73,4-2.33,6.14c-0.7,2.38-1.34,4.78-2,7.16c-0.58,1.66-0.92,3.4-1,5.16c0,0.33-0.07,0.66-0.07,1
			s0.12,0.56,0.55,0.42c0.23-0.11,0.49-0.15,0.75-0.11c0.6,0.23,1.08-0.23,1.42-0.43c0.55-0.37,0.96-0.89,1.19-1.51
			c0.29-0.93,0.52-1.87,0.68-2.83c0.25-1.1,0.65-2.16,0.84-3.28c0.07,0.17,0.07,0.35,0,0.52c-0.06,0.15,0.02,0.32,0.17,0.37
			c0.01,0,0.01,0,0.02,0.01c0.18,0.09,0.28-0.06,0.35-0.2s0.14-0.28,0.2-0.42c0.09-0.26,0.37-0.39,0.62-0.3c0,0,0,0,0.01,0
			c0.81,0.16,1.64,0.24,2.47,0.24c0.33,0,0.44,0.09,0.4,0.46c-0.11,1-0.17,2.06-0.24,3.09c-0.1,1.41-0.06,2.83-0.23,4.23
			c-0.1,0.86,0.39,1.68,1.19,2c0.11,0.06,0.2,0.06,0.24-0.06c0.08-0.28,0.28-0.24,0.49-0.24c0.85-0.05,0.95-0.15,0.92-1
			c-0.19-1.45-0.22-2.92-0.1-4.38c0.18-1-0.09-2.1,0.23-3.12c0.2-0.95,0.26-1.92,0.19-2.88c0-0.86-0.05-1.73,0-2.59
			C218.19,111.62,218.18,109.64,218,107.66z M215,115.27c-0.62-0.04-1.23-0.16-1.82-0.36c-1-0.17-0.91-0.18-0.86-1.15
			c0.09-0.64,0.24-1.27,0.45-1.88c0.37-1.78,1.16-3.43,1.64-5.18c0-0.12,0.1-0.23,0.15-0.36c0,1.07,0.28,2.09,0.25,3.14
			c0,0.77,0.25,1.54,0.21,2.3c0,1.11,0.22,2.18,0.22,3.29c-0.06,0.2-0.14,0.19-0.3,0.2L215,115.27z"/>
		<path class="st1" d="M236.47,105c-0.53,0.09-1.08,0.12-1.62,0.09c-1.37,0.09-2.74,0.06-4.1-0.1c-0.37-0.06-0.55,0-0.54,0.47
			c0.04,2.34-0.07,4.68-0.33,7c-0.27,2.56-0.35,5.11-0.51,7.67c0,0.63-0.18,1.26-0.28,1.9c-0.06,0.28-0.08,0.57-0.05,0.86
			c0.1,0.27,0.01,0.57-0.22,0.75c0,0-0.07,0-0.07,0.07c0.05,0.5-0.02,1-0.18,1.47c-0.08,0.31,0,0.62-0.06,0.93
			c-0.08,0.78-0.21,1.56-0.39,2.33c-0.08,0.35-0.12,0.71-0.13,1.07c0,0.2,0,0.3-0.31,0.24c-0.34-0.09-0.69,0.11-0.78,0.46
			c0,0.01-0.01,0.02-0.01,0.03c-0.04,0.31-0.33,0.53-0.64,0.49c-0.07-0.01-0.13-0.03-0.19-0.06c-0.58-0.23-1.21-0.25-1.81-0.08
			c-0.56,0.16-0.74,0-0.83-0.59c-0.27-1.49-0.42-3-0.44-4.51c0-2.41,0.2-4.81,0.25-7.22c0.1-0.51,0.16-1.02,0.18-1.53
			c-0.07-1.65-0.02-3.3,0.15-4.94c0.06-1.87,0-3.76,0.18-5.63c0.09-0.53,0.23-1.05,0.41-1.55c0.11-0.37,0.1-0.54-0.34-0.65
			c-0.62-0.15-1.22-0.38-1.79-0.66c-0.75-0.19-1.21-0.94-1.02-1.69c0.04-0.15,0.1-0.29,0.18-0.43c0.47-1.26,0.48-1.27,1.77-1
			c1.34,0.32,2.73,0.43,4.1,0.32c1.02-0.13,2.05-0.13,3.07,0c0.69,0.11,1.36,0.29,2,0.56c1.34,0.52,2.76,0.78,4.19,0.79
			c0.39,0,0.65,0.15,0.69,0.54c0.08,0.3,0.2,0.58,0.36,0.84c0.32,0.57,0.11,1.3-0.46,1.62C236.77,104.93,236.62,104.98,236.47,105z"
			/>
		<path class="st1" d="M133.82,113.16c-0.22-0.96-0.52-1.9-0.89-2.81c-0.11-0.32-0.39-0.76-0.27-1c0.29-0.5-0.09-0.62-0.32-0.82
			c-0.51-0.36-0.94-0.82-1.25-1.36c-0.69-1.3-1.79-2.33-3.14-2.92c-0.32-0.19-0.65-0.4-1.06-0.16c-0.1,0.06-0.23,0.06-0.33,0
			c-0.32-0.52-1-0.39-1.4-0.65c-0.52-0.21-1.07-0.37-1.62-0.46c-0.38-0.13-0.8-0.03-1.1,0.24c-1.65,1.29-3.04,2.88-4.09,4.69
			c-0.4,0.79-0.71,1.61-1.17,2.37c-0.55,1.01-0.89,2.12-1,3.27c-0.11,0.98-0.11,1.96,0,2.94c0.03,1.07-0.06,2.14-0.25,3.2
			c0.06,1.9,0.58,3.75,1.51,5.4c1.31,2.22,3.77,3.49,6.33,3.28c0.71-0.05,1.4-0.25,2.09-0.27c2.74-0.06,4.51-1.66,5.9-3.72
			c0.63-1.03,1.11-2.14,1.42-3.31c0.34-1.33,0.57-2.69,0.69-4.06C134.06,115.73,134.05,114.43,133.82,113.16z M129,120
			c-0.54,1.48-1.65,2.68-3.09,3.32c-1.12,0.49-2.37,0.6-3.55,0.29c-0.47-0.13-0.87-0.46-1.08-0.91c-0.72-1.48-1.06-3.12-1-4.77
			c-0.18-2.47,0.82-5.26,2.27-7.94c0.82-1.44,1.77-2.8,2.82-4.08c0.22-0.27,0.34-0.26,0.6,0c1.21,1,2.2,2.24,2.91,3.64
			c0.62,1.24,0.96,2.61,1,4c0,0.55,0.2,1.09,0.19,1.64C129.99,116.84,129.63,118.47,129,120z"/>
		<path class="st1" d="M152.84,114.05c-0.07-1.65-0.54-3.25-1.36-4.68c-1.16-1.92-3.32-3.01-5.55-2.79c-0.61,0-1.21,0.24-1.8,0.26
			c-2.38,0.08-3.9,1.48-5.09,3.3c-0.54,0.9-0.94,1.87-1.2,2.89c-0.29,1.16-0.47,2.35-0.55,3.54c-0.18,1.11-0.18,2.23,0,3.34
			c0.2,0.83,0.47,1.64,0.8,2.43c0.1,0.29,0.34,0.66,0.24,0.83c-0.25,0.44,0.1,0.55,0.29,0.72c0.44,0.31,0.82,0.7,1.11,1.16
			c0.6,1.13,1.58,2.02,2.76,2.51c0.27,0.15,0.56,0.35,0.92,0.13c0.09-0.06,0.2-0.06,0.29,0c0.27,0.45,0.82,0.33,1.21,0.54
			c0.46,0.18,0.93,0.31,1.42,0.39c0.35,0.11,0.73,0.02,1-0.23c1.42-1.13,2.61-2.53,3.49-4.11c0.35-0.69,0.6-1.41,1-2.07
			c0.47-0.89,0.77-1.86,0.87-2.86c0.1-0.85,0.1-1.7,0-2.55C152.65,115.88,152.7,114.96,152.84,114.05z M147.2,122.56
			c-0.69,1.26-1.5,2.46-2.4,3.58c-0.19,0.24-0.3,0.23-0.52,0c-1.06-0.86-1.93-1.93-2.57-3.14c-0.56-1.08-0.88-2.27-0.93-3.49
			c0-0.47-0.18-1-0.19-1.42c0.05-1.44,0.35-2.86,0.89-4.2c0.45-1.3,1.4-2.35,2.65-2.92c0.96-0.44,2.04-0.53,3.07-0.28
			c0.43,0.09,0.8,0.38,1,0.77c0.64,1.28,0.96,2.7,0.93,4.13C149.15,118.05,148.48,120.46,147.2,122.56z"/>
		<path class="st1" d="M169,103.75c-0.74-1.13-1.9-1.92-3.23-2.18c-0.48-0.01-0.95-0.05-1.42-0.12c-0.72-0.24-1.5,0.11-2.16-0.3
			c-0.06-0.04-0.14-0.04-0.2,0c-0.2,0.32-0.51,0.16-0.78,0.2s-0.86-0.14-1,0.26s-0.45,0.62-0.72,0.89c-0.18,0.16-0.29,0.39-0.3,0.64
			c-0.01,0.22-0.07,0.44-0.17,0.64c-0.62,1.52-1.08,3.09-1.38,4.7c-0.45,2.58-0.51,5.22-0.83,7.82c-0.29,2.18-0.41,4.39-0.34,6.59
			c0.05,1.28-0.13,2.58-0.17,3.87c0,0.66,0.33,1,0.95,0.76c0.36-0.11,0.72,0,1.09-0.2s0,0.3,0.25,0.43s0.22-0.51,0.48-0.18
			s0.5,0.17,0.76,0.24c0.06,0,0.1-0.1,0.21,0c0.36,0.29,0.89,0.24,1.18-0.12c0.12-0.15,0.19-0.34,0.19-0.54
			c0.08-0.86,0.24-1.71,0.49-2.53c0.81-2.31,1.29-4.72,1.42-7.17c0-0.37,0.12-0.62,0.57-0.71c0.73-0.13,1.44-0.36,2.1-0.69
			c1-0.65,1.87-1.48,2.57-2.45c0.61-0.72,0.72-1.72,1.33-2.43c0.56-0.65,0.83-1.5,0.76-2.35C170.67,106.99,170.09,105.21,169,103.75
			z M165.43,113c-0.29,0.31-0.63,0.56-1,0.75c-0.2,0.1-0.37,0.35-0.6,0.21s-0.06-0.42-0.11-0.48c0.05-1.82,0-3.5,0.17-5.18
			c0.11-1.23,0-2.45,0.08-3.68c0-0.4,0.17-0.48,0.52-0.37c1.45,0.49,2.46,1.8,2.59,3.32C167.42,109.54,166.81,111.55,165.43,113z"/>
		<path class="st1" d="M152.56,100.8c-0.03,0.11-0.05,0.22-0.06,0.33c-0.19,0.46-0.41,0.91-0.64,1.35s-0.46,0.63-1,0.5
			c-0.56-0.08-1.13-0.08-1.69,0c-0.42,0-0.8-0.08-0.84-0.56c0-0.29-0.19-0.19-0.31-0.18c-0.19,0.05-0.38-0.06-0.43-0.25
			c-0.01-0.03-0.01-0.05-0.01-0.08c-0.15-0.53-0.18-1.09-0.08-1.64c0.04-0.1,0.06-0.21,0.06-0.32c0.19-0.46,0.41-0.91,0.65-1.35
			c0.21-0.41,0.45-0.63,0.94-0.5c0.56,0.08,1.13,0.08,1.69,0c0.42,0,0.79,0.09,0.84,0.56c0,0.29,0.19,0.19,0.31,0.17
			c0.19-0.05,0.38,0.06,0.43,0.25c0.01,0.03,0.01,0.06,0.01,0.09C152.6,99.7,152.64,100.25,152.56,100.8z"/>
		<path class="st1" d="M144.42,99.17c-0.11,0.45-0.15,0.92-0.13,1.38c0,0.35-0.14,0.65-0.53,0.65c-0.24,0-0.17,0.15-0.16,0.25
			c0.02,0.16-0.09,0.32-0.26,0.34c-0.02,0-0.04,0-0.05,0c-0.45,0.08-0.91,0.06-1.35-0.06c-0.08-0.04-0.17-0.06-0.26-0.07
			c-0.36-0.2-0.72-0.4-1.07-0.63s-0.48-0.42-0.33-0.81c0.11-0.46,0.15-0.92,0.14-1.39c0-0.34,0.12-0.64,0.52-0.64
			c0.24,0,0.16-0.15,0.16-0.24c0-0.24,0.13-0.35,0.31-0.35c0.45-0.08,0.91-0.06,1.35,0.06c0.08,0.04,0.17,0.06,0.26,0.08
			c0.37,0.19,0.73,0.39,1.07,0.62C144.4,98.57,144.56,98.77,144.42,99.17z"/>
		<path class="st1" d="M279.46,96.43c-1.05-5.61-3.85-10.75-8-14.67c-1.26-1.23-2.66-2.3-4.18-3.18c-0.72-0.39-1.42-0.8-2.1-1.26
			c-2.52-1.63-5.13-3.1-7.84-4.4c-4.13-1.9-8.37-3.57-12.69-5c-2.35-0.79-4.75-1.46-7.17-2l-0.78-0.2c-2.68-0.7-5.35-1.44-8.05-2.11
			c-0.63-0.16-1.26-0.3-1.9-0.43c-2.6-0.52-5.23-0.87-7.83-1.43c-2.21-0.46-4.46-0.78-6.72-1.07c-3.34-0.44-6.66-1-10-1.3
			c-0.91-0.1-1.83-0.18-2.75-0.24c-4-0.28-7.93-0.7-11.91-0.88c-2.25-0.1-4.49-0.13-6.74-0.18c-1.15,0-2.28,0-3.42-0.1
			c-1.88-0.07-3.77,0-5.66,0.09c-1.24,0-2.48-0.19-3.73,0c-0.2,0.07-0.42-0.05-0.49-0.25c0-0.01-0.01-0.02-0.01-0.03
			c0-0.06,0.07-0.22,0.1-0.21c0.84,0.08,1.31-0.86,2.17-0.77c0.51,0,1,0,1.54,0h5.91c0-0.08,0-0.17,0-0.24h-0.75
			c-2.78-0.1-5.57-0.22-8.35-0.29c-1.49,0-3-0.42-4.43,0.49c-0.11,0.07-0.23,0-0.31-0.11c-0.55-0.59-1.27-0.46-1.94-0.43
			c-1,0-2.07,0.08-3.11,0.1c-0.64,0-1.27,0-1.91,0c-0.81-0.03-1.63,0.01-2.44,0.11c-0.89,0.13-1.79,0.18-2.69,0.16
			c-0.94-0.08-1.88-0.04-2.81,0.1c-0.6,0.13-1.21,0.23-1.82,0.28c-1.44,0.14-2.88,0.13-4.3,0.36c-1.04,0.23-2.1,0.41-3.16,0.53
			c-1.01,0.05-2.01,0.18-3,0.39c-2.51,0.5-5,1-7.51,1.59c-3.41,0.83-6.79,1.83-10.1,3c-2.17,0.81-4.29,1.74-6.36,2.79
			c-1.99,0.92-3.9,1.99-5.72,3.21c-3.61,2.38-7.08,4.97-10.38,7.77c-0.51,0.46-1,1-1.49,1.42c-2.25,1.81-4.27,3.9-6,6.22
			c-0.5,0.74-1.05,1.45-1.63,2.13c-1.88,2.19-2.68,5.06-4.53,7.26c-0.06,0.07-0.1,0.15-0.12,0.23c-1.26,2.54-2.36,5.15-3.29,7.83
			c-1.11,3.16-1.58,6.51-1.37,9.85c0.31,4.72,2.33,9.16,5.68,12.49c2.41,2.42,5.37,4.07,8.24,5.86c3.77,2.3,7.69,4.35,11.73,6.14
			c2.24,1.07,4.54,2.03,6.88,2.85c2.36,0.8,4.74,1.56,7,2.5c2.82,1.17,5.7,2.17,8.64,3c3,0.84,6,1.68,9,2.47l0.92,0.23
			c2.9,0.73,5.83,1.38,8.78,1.89s5.8,1.16,8.75,1.48c2.78,0.31,5.54,0.65,8.31,1c2.35,0.27,4.69,0.54,7,0.75
			c1.92,0.19,3.85,0.31,5.78,0.42c2.19,0.13,4.37,0.26,6.55,0.28c2.35,0,4.71-0.09,7.06-0.18c1.93-0.07,3.86-0.14,5.78-0.32
			c4-0.38,8-0.76,12-1.17s8.24-1.15,12.36-1.73c2.38-0.35,4.7-1,7.06-1.45c3.68-0.72,7.28-1.75,10.79-3.07
			c3.78-1.42,7.48-3.04,11.08-4.86c2.69-1.24,5.31-2.61,7.85-4.12c4.43-2.87,8.52-6.23,12.21-10c0.83-0.81,1.72-1.55,2.47-2.43
			c2.06-2.37,3.81-4.98,5.23-7.77c1.91-3.51,3.34-7.26,4.28-11.14C279.82,101.99,279.93,99.17,279.46,96.43z M111.3,68.69
			c2.26-1.23,4.6-2.31,7-3.25c1.89-0.71,3.79-1.38,5.73-1.93c1.56-0.46,3.11-1,4.7-1.33c4.88-1.18,9.83-2.03,14.82-2.55
			c1.4-0.13,2.78-0.28,4.18-0.4l0,0c2.2-0.19,4.38-0.35,6.59-0.39c1.11-0.15,2.24-0.2,3.36-0.15h0.17h-0.2
			c-2.31,0.25-4.53,0.47-6.72,0.72l-3.64,0.4c-5,0.6-10,1.67-14.94,2.64c-2.8,0.54-5.48,1.43-8.22,2.13c-4.8,1.32-9.48,3.03-14,5.1
			l-0.71,0.31c0-0.07-0.1-0.13-0.15-0.21C110,69.45,110.62,69.05,111.3,68.69z M80.31,104c0.13,4,0.41,7.87,1.87,11.62
			s4.16,6.61,6.93,9.41C81.04,121.48,77.17,112.23,80.31,104z M274.93,111.16c-0.79,1.76-1.57,3.52-2.48,5.23
			c-1.5,2.71-3.42,5.16-5.69,7.26l-1.95,1.88c-0.58,0.56-1.16,1.1-1.76,1.63s-1,0.9-1.52,1.32c-3.63,3.07-7.61,5.69-11.87,7.8
			c-3.8,1.89-7.63,3.75-11.56,5.34c-3.89,1.49-7.88,2.69-11.95,3.6c-3.47,0.83-6.97,1.52-10.48,2.05c-3,0.46-6,1-9,1.23
			c-1.92,0.12-3.84,0.33-5.76,0.53c-3.58,0.37-7.17,0.65-10.77,0.83c-2.62,0.13-5.23,0.2-7.85,0.22c-3.39,0.06-6.78-0.1-10.15-0.47
			c-1.53-0.18-3.08-0.21-4.62-0.31c-2.79-0.17-5.54-0.64-8.3-0.93c-1.25-0.14-2.48-0.29-3.72-0.4c-2.24-0.18-4.47-0.56-6.65-1.12
			h-0.05h0.48l3.5-0.06c1,0,1.88-0.12,2.83-0.19c0.48,0,0.93-0.21,1.25-0.57c0.4-0.38,0.41-1.02,0.03-1.41
			c-0.01-0.01-0.02-0.02-0.03-0.03c-0.18-0.16-0.41-0.26-0.65-0.3c-0.66-0.1-1.34-0.1-2,0c-0.55,0.12-1.12,0.09-1.65-0.11
			c-0.23-0.13-0.5-0.16-0.75-0.09c-0.12,0.06-0.24,0.1-0.36,0.14c-1.38-0.12-2.76-0.22-4.14-0.21c-1.57,0-3.15-0.44-4.73-0.48
			c-2.61-0.14-5.2-0.43-7.78-0.84c-2.14-0.28-4.26-0.83-6.39-1.32c-2-0.46-3.92-0.9-5.89-1.37c-4.49-1.14-8.82-2.86-12.88-5.1
			c-4-2.13-7.92-4.36-11.75-6.69c-2.83-1.63-5.48-3.57-7.89-5.78c-2.72-2.38-4.88-5.34-6.33-8.65c-1.99-5.69-1.79-11.91,0.57-17.46
			c1.18-2.86,2.61-5.6,4.28-8.21c0.37-0.58,0.8-1.11,1.27-1.61c4.03-4.24,8.64-7.88,13.7-10.82c7.22-4.11,14.95-7.25,23-9.31
			c6.47-1.74,13.04-3.08,19.68-4c4.71-0.67,9.44-1.18,14.18-1.47c4.92-0.31,9.85-0.53,14.78-0.55c2.27,0,4.52,0,6.78,0.05
			s4.49,0.14,6.73,0.28c3.9,0.24,7.79,0.5,11.67,0.88l2.22,0.23c4.34,0.48,8.66,1.1,13,1.73c2.85,0.43,5.69,1,8.52,1.57l2,0.4
			c3,0.6,5.92,1.28,8.85,2.07s6.06,1.7,9,2.7l12.8,5.07c2.86,1.39,5.52,3.14,8.23,4.78c1.33,0.79,2.62,1.64,3.86,2.57
			c3.54,2.77,6.18,6.53,7.59,10.8C278.49,99.62,277.48,105.44,274.93,111.16z"/>
	</g>
</g>
</svg>
