<svg xmlns="http://www.w3.org/2000/svg" viewBox="0 0 158.31 42.19"><defs><style>.cls-1{fill:#fff;}</style></defs><title>company_textMiddel 9</title><g id="Laag_2" data-name="Laag 2"><g id="Laag_1-2" data-name="Laag 1"><path class="cls-1" d="M70.32,32.88c.32.27.15.63.32,1a7.4,7.4,0,0,0,.56-5c.43.26.18.7.48,1.08,1.13-3.86,1.83-7.73,2.63-11.59s1.3-7.79,2.48-11.64c-1.28,1-2.6,4.2-3.62,8.62.75-.26.8.12.66.69a20,20,0,0,1-1.28,3.78c-.08.16-.15.38-.29.46-.84.5-.88,1.33-1,2.15,0,.13-.46.65.24.39,0,0,.08.13.07.19-.19,1,.23,2.05-.53,3-.4.48-.13,1.22-.17,1.84-.08,1.08.22,2.23-.52,3.19A8.81,8.81,0,0,1,69.54,26,59.86,59.86,0,0,1,71,16.33a33.81,33.81,0,0,1,3.78-9.28,15.84,15.84,0,0,1,4.06-4.34,5.69,5.69,0,0,0,.61-.49,4.26,4.26,0,0,1,6.12,0,20.29,20.29,0,0,1,5.38,8.89,6.44,6.44,0,0,1,0,3.64c-.54,1.86-.9,3.79-2.35,5.24-.26.26-.19.49-.08.83.59,1.84,1.56,3.55,1.84,5.49.15,1.09.14,2.19.21,3.29.15,2.48.15,5,.18,7.46,0,1.63,0,1.74-1.5,2.18a6,6,0,0,1-3.88.24,1.11,1.11,0,0,1-.85-1A74.9,74.9,0,0,0,83.37,30a44.38,44.38,0,0,1-1.06-6.66c0-.36,0-.78-.54-.76s-1.06-.1-1.21.65c-.32,1.57-.65,3.13-1,4.68-.69,3-1.23,5.94-2,8.87A8.71,8.71,0,0,1,76,39.88c-.31.39-.61.68-1.16.21a2.05,2.05,0,0,0-1.5-.32c-.57,0-1.06-.34-1.62-.23-.11,0-.19-.08-.21-.2-.32-2.13-1.25-4.14-1.23-6.34C70.24,33,70.27,33,70.32,32.88Zm13.07-14.3a4.09,4.09,0,0,0,3.32-1.34,3.89,3.89,0,0,0,.85-1.65c.61-1.63,1.37-3.29.42-5.05a21.85,21.85,0,0,0-2.7-4.1c-.19-.22-.37-.56-.66-.51s-.39.49-.43.77c-.35,2.24-.89,4.46-1,6.73a12.33,12.33,0,0,1-.69,3.84C81.93,18.57,81.61,18.65,83.39,18.58Z"/><path class="cls-1" d="M1.42,35.4c.16-.59,0-.83-.53-.66C.13,35,0,34.55,0,34A21.22,21.22,0,0,1,.4,30.8c1.09-4.61,1.8-9.3,2.89-13.91,0-.2,0-.47.24-.54.73-.19.69-.57.33-1.08a.72.72,0,0,1-.06-.61c.81-3.38,1.45-6.81,2.59-10.11A10.63,10.63,0,0,1,8.49.91C8.73.64,9,.64,9.31.5,10,.15,10.77.42,11.43,0a.22.22,0,0,1,.22,0C13.23,1,15.16,1,16.73,2c2.75,1.69,4.76,3.86,5.11,7.28a7.53,7.53,0,0,1-1,4.26c-.46.89-1.52,1.47-2.32,2.18a17.56,17.56,0,0,1-4.94,2.86c-.4.17-.67.37-.2.76,1.62,1.36,1.9,3.34,2.31,5.21,1.12,5.15-2.72,10.05-7.13,11.38a6.82,6.82,0,0,0-2.17.78c-.93.82-1.78.41-2.68.34a6.39,6.39,0,0,1-1.52-.29C1.48,36.5,1.42,35.91,1.42,35.4ZM18.58,8.69a4.76,4.76,0,0,0-2.29-4.34,14.68,14.68,0,0,0-3-1.2c-.6-.19-.85,0-1,.54a8.86,8.86,0,0,0-.2,2.95c.1.75.08,1.52.13,2.27a31.46,31.46,0,0,1-.46,4.34c0,.48.18,1.09-.24,1.51s-.26.93-.31,1.41c0,.25.11.37.33.22,1.19-.77,2.64-1,3.8-1.91A8.35,8.35,0,0,0,18.58,8.69Zm-5.8,17.67a3.38,3.38,0,0,0-.4-1.76,7.11,7.11,0,0,1-1.07-2.52A1.61,1.61,0,0,0,10.58,21c-.33-.2-.48-.11-.5.26-.06.8-.42,1.54-.54,2.34a7.59,7.59,0,0,1-.36,2C8.59,27,8.43,28.42,8,29.77A4.7,4.7,0,0,0,7.69,32c.1.64.28.75.83.39s1-.79,1.52-1.12C11.89,30.14,12.53,28.36,12.78,26.36Z"/><path class="cls-1" d="M50.06,18.73c-.34.14-.32.45-.55.65-.22-.43.12-.81,0-1.22-.47.35-.22,1-.6,1.41,0-.09-.08-.14-.07-.18a37.51,37.51,0,0,1,1.91-8.5c.41-1,1.25-1.72,1.72-2.69A31,31,0,0,0,54,5c.6-1.7,1.29-2.13,3.07-1.85A2.45,2.45,0,0,0,58.4,3a2.29,2.29,0,0,1,2.24.28c.83.54,1.91.63,2.54,1.56a13.64,13.64,0,0,1,.95,1.43A17.5,17.5,0,0,1,66,13.08a30.69,30.69,0,0,1-1.39,11.67,14.45,14.45,0,0,1-3.91,6.09c-1.07,1-2.11,2.1-3.27,3a5,5,0,0,1-2,1,9.91,9.91,0,0,0-2.5.65.92.92,0,0,1-.84,0,2.68,2.68,0,0,0-2.48.18c-.49.21-.59,0-.69-.37a17.54,17.54,0,0,1-.23-5A33,33,0,0,0,49,26.5c-.11-1.79.53-3.45.71-5.18A7.85,7.85,0,0,0,50.06,18.73Zm11.46.07a1.28,1.28,0,0,1-.07-.26,2.42,2.42,0,0,1,0-.47,12,12,0,0,0-.09-6.2,8.11,8.11,0,0,0-.62-2.33c-.11-.17-.25-.39-.49-.33s-.18.29-.21.47c-.22,1.23-.3,2.48-.59,3.7a103.07,103.07,0,0,0-2.41,13.4.77.77,0,0,1-.26.63c-.22-.23,0-.54-.17-.8-.72,2.17-.72,2.17-.4,3,.26-.18,0-.65.45-.78,0,.71.29.56.66.23A8.13,8.13,0,0,0,59,27.43c1.72-2.83,3.42-5.67,3-9.15C61.79,18.36,61.84,18.68,61.52,18.8Z"/><path class="cls-1" d="M33.6,40.2a20.42,20.42,0,0,1-8.27-.79c-1.85-.63-2.27-.83-2.43-3.29a51.1,51.1,0,0,1,.58-10.48,102.44,102.44,0,0,1,2.13-10.85,20.15,20.15,0,0,1,5.3-9.66,3.61,3.61,0,0,0,.47-.62,1.73,1.73,0,0,1,1.8-1c1.44.08,2.9-.24,4.37-.24a52.46,52.46,0,0,1,6.27.32A1.3,1.3,0,0,1,45,5.49,4.07,4.07,0,0,0,44.81,7c0,.94-.52,1.5-1.46,1.41a15.42,15.42,0,0,1-3.88-.51c-1.07-.37-2,.38-3,.42-.25,0-.13.3-.17.46-.62,2.5-.67,5.07-1.06,7.6,0,.1,0,.21,0,.31C35,18,35,18,36.39,18.2a10.66,10.66,0,0,1,1.84.35,1.81,1.81,0,0,1,1.23,1.19c.27.7.42,1.47,1.15,1.91a.36.36,0,0,1,0,.61,2.06,2.06,0,0,1-1.85.8,30.05,30.05,0,0,0-4.92-.32.67.67,0,0,0-.75.51c-1.06,2.82-2.27,5.57-3.2,8.44a14.63,14.63,0,0,0-.47,2,4.8,4.8,0,0,1-.85,2.17c-.32.43-.23.75.39.87a16.09,16.09,0,0,0,2.5.1,35.37,35.37,0,0,1,4,.32c.78.12,1.21.8,1.71,1.3S36.61,40.17,36,40.2,34.5,40.2,33.6,40.2Z"/><path class="cls-1" d="M104.78,4.6c1.18-.14,2.63.21,4-.33a.66.66,0,0,1,.53,0c1.18.81,2.58.51,3.87.79a4.93,4.93,0,0,1,3.43,2.57,1,1,0,0,1-.15,1c-.2.3-.49.26-.78.21-1-.2-2.06-.38-3.08-.62-.52-.12-.63.08-.65.55,0,1.33.06,2.66,0,4a64.77,64.77,0,0,1-1.2,8.46,63.48,63.48,0,0,1-2.18,9.23,26.72,26.72,0,0,0-.7,3c-.13.71.11,1,.76,1a4.12,4.12,0,0,1,2,.68,1.47,1.47,0,0,1,.65,1.76.74.74,0,0,1-.83.66c-.92,0-1.84-.1-2.74-.09-3,0-5.9-1-8.89-1.19a1.53,1.53,0,0,1-1.56-1.47c-.06-.57.37-.79.81-.9a3.9,3.9,0,0,1,1.79-.16c.65.14.85-.11.88-.7.17-2.77.74-5.49,1-8.25.19-1.7.75-3.32,1-5,.64-3.9,1.8-7.69,2.4-11.6,0-.21,0-.42.07-.63.09-.41-.06-.57-.48-.56a9.19,9.19,0,0,1-2.54-.47c-.54-.15-1.16-.37-1.1-1s.72-.67,1.23-.78A9.44,9.44,0,0,1,104.78,4.6Z"/><path class="cls-1" d="M151.08,8.59c2-.25,3.95.4,5.94.8.9.18,1.09.58,1.18,1.49,0,.46-.33.94.08,1.39.12.13-.13.23-.27.29a2.21,2.21,0,0,1-1.32.11l-4.21-.91a4.08,4.08,0,0,0-.7-.11c-.3,0-.78-.09-.78.29s-.56.83.06,1.21c.23.14.09.43.05.66A61.33,61.33,0,0,1,150,20.54c-.18.62,0,.82.65.81a5.25,5.25,0,0,1,4.57,2.55c.36.54.18,1-.37,1.22a3.62,3.62,0,0,1-2,.17L149.94,25c-.59-.07-.86.17-.89.78a36,36,0,0,1-1.55,7.41,32.7,32.7,0,0,1-2.6,6.64,6.08,6.08,0,0,1-1.56,1.71.49.49,0,0,1-.71,0c-.55-.51-1-.31-1.55.08-1.06.84-1.27.78-1.8-.4a9,9,0,0,1-.35-4.65,91.41,91.41,0,0,1,2.69-14,69,69,0,0,1,3-9.91,20.38,20.38,0,0,1,1.08-3,1.27,1.27,0,0,1,.76-.62A13.48,13.48,0,0,1,151.08,8.59Z"/><path class="cls-1" d="M125,20.88a20.73,20.73,0,0,1,.76-7.52c.18-.56,0-.73-.53-.67a27.32,27.32,0,0,0-3.12.25c-.88.21-.73,0-1.07-.77-.59-1.36.46-1.28,1.1-1.72,2-1.38,4.33-1.24,6.57-1.47a42.75,42.75,0,0,1,6.3.17,2.65,2.65,0,0,1,2.39,1.26c.24.4.46.82.19,1.24a1.3,1.3,0,0,1-1.33.76,20.62,20.62,0,0,0-2.36,0c-.37,0-.54.12-.53.57,0,1.8,0,3.6,0,5.4a41.77,41.77,0,0,1-1.27,8.26,9.41,9.41,0,0,1-2.78,5.09c-.83.77-1.07,1.87-1.89,2.66a7.27,7.27,0,0,1-7.49,1.45l-.44-.16c-1.28-.37-1.69-.8-1.8-2.06,0-.36.07-.78.55-.81a13.12,13.12,0,0,1,1.55-.18,4.72,4.72,0,0,0,4.37-3c.81-2.08.71-4.26.85-6.42C125,22.44,125,21.7,125,20.88Z"/></g></g></svg>