<svg xmlns="http://www.w3.org/2000/svg" viewBox="0 0 115.4 61.59"><defs><style>.cls-1{fill:#bababa;}</style></defs><title>logoMiddel 1</title><g id="Laag_2" data-name="Laag 2"><g id="Laag_1-2" data-name="Laag 1"><polygon class="cls-1" points="0 43.34 0 61.32 9.08 61.32 9.08 58.79 2.9 58.79 2.9 43.34 0 43.34"/><path class="cls-1" d="M18.25,55.6c0,1.89-1.31,3.75-3.25,3.75a1.61,1.61,0,0,1-1.81-1.62c0-1.15.9-2.4,5.06-2.4v.27m2.93,5.72c-.06-1.12-.08-2.47-.08-3.62V52.29c0-2.71-1.12-4.47-5.17-4.47a13.07,13.07,0,0,0-4.66.88l.26,2.42a8.16,8.16,0,0,1,4-1.07c2.07,0,2.77.86,2.77,2.51v.85c-4.77,0-7.81,1.76-7.81,4.8,0,2.1,1.44,3.38,3.71,3.38a4.62,4.62,0,0,0,4.39-2.74l0,0a17.12,17.12,0,0,0-.14,2.45Z"/><path class="cls-1" d="M33.59,61.32V52.8c0-1.65-.45-2.61-2-2.61-2,0-3.46,2.1-3.46,4.74v6.39H25.31V48.08H28a17.82,17.82,0,0,1-.18,2.59l0,0a4.85,4.85,0,0,1,4.61-2.87c3,0,3.94,1.89,3.94,4.23v9.27H33.59"/><path class="cls-1" d="M48.43,54.48c0,2.26-1.17,4.76-3.28,4.76-1.81,0-2.63-1.49-2.63-4.15,0-3.57,1.54-5,3.8-5a9.62,9.62,0,0,1,2.11.24v4.11m2.82,6.84V41.88H48.43V48c-.72-.06-1.36-.11-2-.11-4.29,0-6.92,2.93-6.92,7.49,0,3.83,1.62,6.23,4.87,6.23a4.58,4.58,0,0,0,4.32-2.74h0a16.28,16.28,0,0,0-.19,2.47Z"/><path class="cls-1" d="M57.59,61.59a15.2,15.2,0,0,1-2.8-.27l.09-2.42a10.62,10.62,0,0,0,2.87.42c1.55,0,2.61-.66,2.61-1.75,0-2.67-5.8-1.07-5.8-5.65,0-2.29,1.86-4.1,5.46-4.1a15.07,15.07,0,0,1,2.47.24l-.08,2.31A9.3,9.3,0,0,0,59.83,50c-1.57,0-2.34.64-2.34,1.65,0,2.56,5.86,1.25,5.86,5.65,0,2.48-2.21,4.29-5.76,4.29"/><path class="cls-1" d="M70.86,61.56c-2.83,0-3.68-1.09-3.68-4.05V50.29H64.65V48.08h2.53V43.87L70,43.1v5h3.5v2.21H70v6.34c0,2,.4,2.51,1.73,2.51a7.41,7.41,0,0,0,1.74-.21v2.34a13.86,13.86,0,0,1-2.64.29"/><path class="cls-1" d="M84.1,52.88H78.48a3,3,0,0,1,3-3,2.59,2.59,0,0,1,2.67,3m2.85.66c0-3.14-1.63-5.72-5.41-5.72s-6.05,3-6.05,7c0,4.66,2.27,6.79,6.4,6.79a12.09,12.09,0,0,0,4.58-.85l-.27-2.27a9.15,9.15,0,0,1-3.86.85c-2.64,0-4-1.38-3.92-4.44h8.45c0-.51.08-1,.08-1.34"/><path class="cls-1" d="M98,54.48c0,2.26-1.17,4.76-3.28,4.76-1.81,0-2.63-1.49-2.63-4.15,0-3.57,1.54-5,3.8-5a9.62,9.62,0,0,1,2.11.24v4.11m2.82,6.84V41.88H98V48c-.72-.06-1.36-.11-2-.11-4.29,0-6.92,2.93-6.92,7.49,0,3.83,1.62,6.23,4.87,6.23a4.58,4.58,0,0,0,4.32-2.74h0a16.28,16.28,0,0,0-.19,2.47Z"/><path class="cls-1" d="M112.55,52.88h-5.62c.24-1.79,1.35-3,2.95-3a2.59,2.59,0,0,1,2.67,3m2.85.66c0-3.14-1.63-5.72-5.41-5.72s-6,3-6,7c0,4.66,2.27,6.79,6.4,6.79a12.09,12.09,0,0,0,4.58-.85l-.27-2.27a9.15,9.15,0,0,1-3.86.85c-2.64,0-4-1.38-3.92-4.44h8.45c.05-.51.08-1,.08-1.34"/><path class="cls-1" d="M46.67,31.53c3.74.79,11.79,1.13,23.39-4.87a56.31,56.31,0,0,0,14.82.73S81.55,31.8,73,30.63c0,0-9.9,1.34-14.23,2.58,0,0-11.45,6.34-12.08-1.67h0"/><path class="cls-1" d="M37.79,26.78c-2.48,1.35-11.3,5.94-3-1.86,0,0-7.73,2.09-4.1-2.69,0,0-9.34-5.52-4.83-20.15,0,0-3.49,12.09,11.79,24.38l.15.32"/><path class="cls-1" d="M47.21,10a3.67,3.67,0,0,0-2.79,4s-2.33-1.43-2.33,6.17l-2.17,4.49a1.7,1.7,0,0,0,1.67,1.17s.42-3.25,1.91-5c0,0-1.11-5.19,1.35-5.59,0,0,.53-3.45,2.36-5.28"/><path class="cls-1" d="M35.46,37.6a1.88,1.88,0,0,1-.12.3,3.65,3.65,0,0,1-.34.61c-.06.09-.1.94,0,1a7.72,7.72,0,0,0,2.67.16,2.25,2.25,0,0,0,0-1,10.37,10.37,0,0,1-2.23,0h0a2.44,2.44,0,0,0-.85-3.11c.07,0-.19.89,0,1a2,2,0,0,1,.89.9.79.79,0,0,1,0,.21"/><path class="cls-1" d="M39.42,37.74c.65.1,1.21.28,1.37,1a2.92,2.92,0,0,0,.38,1.19c.79,1.09,2.51.18,3.58.58,0,0,.17-.94,0-1-1.18-.44-2.94.58-3.7-.79a8.5,8.5,0,0,1-.33-1.25c-.2-.51-.82-.64-1.3-.71,0,0-.12,1,0,1"/><path class="cls-1" d="M86.73,26.17c0-.07-.1-1-.1-1-.67.55-1.34,1.1-2,1.61a21.66,21.66,0,0,1-9.28.13c-3.46-.63-6.85-1.68-10.38-1.89s-7,.78-10.45,1.41-7.19.83-10.64-.48c0,0-.17.93,0,1,3.36,1.28,6.85,1.13,10.35.54S61.28,25.84,64.93,26c3.43.16,6.74,1.18,10.09,1.83a23.14,23.14,0,0,0,7.41.34c-.12.07-.24.14-.37.2a15.11,15.11,0,0,1-5.59,1.52c-2,.21-4.08.24-6.11.46A62.65,62.65,0,0,0,64,31.45c-1.95.41-3.89.86-5.81,1.41a50.55,50.55,0,0,1-5,1.28,7.92,7.92,0,0,1-4.77-.32c-1.4-.68-1.6-2.37-1.6-3.74,0-.09-.12-1-.1-1-.59.62-1.1,1.32-1.65,2-.33.39-.67.83-1,1.23h0c.37-.63.75-1.27,1.13-1.89a2.83,2.83,0,0,0,.07-1.23c0-.07-.06-.8-.12-.7-1.18,1.94-2.93,4.07-2.41,6.5.16.73,1.64-1.07,1.81-1.26.73-.81,1.37-1.71,2.11-2.51h0a9.1,9.1,0,0,0,.5,3.16c.61,1.57,2.28,1.94,3.8,2a18.1,18.1,0,0,0,5.35-.92c1.94-.54,3.87-1.08,5.83-1.53,2.22-.52,4.45-1,6.71-1.31s4.52-.43,6.8-.59a17.17,17.17,0,0,0,6-1.34,23.37,23.37,0,0,0,5.07-3.47c.17-.15.1-.81.1-1"/><path class="cls-1" d="M45.43,20.74c0-.17.07-.57.1-.66a7.28,7.28,0,0,0,.23-.92,13.74,13.74,0,0,0,.18-3.45,8.8,8.8,0,0,1,1.2-4.23,1.47,1.47,0,0,0,.1-.62,1.86,1.86,0,0,1,.37.1c-.09,0,.35-1.86,0-2-2-.79-3,2.46-3.58,3.76A1,1,0,0,0,44,13c-1.57.5-1.7,2.21-1.76,3.8a8.2,8.2,0,0,1-.62,3.24,23.13,23.13,0,0,0-1.71,3.8,2.17,2.17,0,0,0,0,.25,29.54,29.54,0,0,1-9.67-8.42,26.43,26.43,0,0,1-3.08-5.55A14.21,14.21,0,0,1,25.77,3.4a15.33,15.33,0,0,1,.56-1.47A3.33,3.33,0,0,0,26.4.71c0-.08-.09-.79-.13-.7a24.34,24.34,0,0,0-1.5,12.59c.47,3.78,2,7.56,5,10a2.57,2.57,0,0,0-.27.94c-.07.83-.21,2.05.64,2.54a4.16,4.16,0,0,0,2.38.21h0a3.43,3.43,0,0,0-1.31,1.28,4.66,4.66,0,0,0,0,2.1.71.71,0,0,0,.59.62A4.16,4.16,0,0,0,34.05,30h0A10.41,10.41,0,0,0,33,31.75a3.27,3.27,0,0,0,0,2,8.81,8.81,0,0,0,3,1.82,5.14,5.14,0,0,0,3.31.57c.33-.11-.06-2,0-2-1,.36-2.35-.18-3.31-.57a10.91,10.91,0,0,1-2.25-1.16A22.21,22.21,0,0,1,37.2,28.6h0a2.45,2.45,0,0,0,.57-.54c.16-.22.1-.74.1-1,0-.08-.11-1-.1-1l-.54.45a8.88,8.88,0,0,1-1.37.76,12.18,12.18,0,0,1-3.05,1l-.33,0a15.07,15.07,0,0,0,2.9-2.45,5.09,5.09,0,0,0,0-2c-1.25.13-2.46.42-3.73.46a3.24,3.24,0,0,1-1.6-.29h0c.19-.27.41-.52.61-.77s.25-1.84,0-2c-5.59-3.59-6.88-11.08-5.12-17.17C25.47,7.78,27,11.6,28.83,14.68a29.14,29.14,0,0,0,11,10.43,4.27,4.27,0,0,0,.12.69,18.13,18.13,0,0,1,1.6-3.57,8.16,8.16,0,0,0,.81-3.15c.13-1.82-.13-3.93,2.23-4.18.15,0,.13-1,.07-1.58A4.51,4.51,0,0,1,46.45,11a10,10,0,0,0-.6,2.35c-.19,1.52.08,3.08-.29,4.56a10.52,10.52,0,0,0-.4,3.87,11,11,0,0,0,.39,1.88,7.92,7.92,0,0,0,.39,1,3.06,3.06,0,0,1,.22.64c.06.3.18,1,.18,1,.06.38.13-.3.14-.36A6.88,6.88,0,0,0,46,22.71a12.25,12.25,0,0,1-.59-1.77l0-.2"/><path class="cls-1" d="M34.75,24v-.11a26.27,26.27,0,0,1-3.07.38,3.24,3.24,0,0,1-1.6-.29h0c.19-.27.41-.52.61-.77s.25-1.84,0-2c-5.58-3.58-6.87-11-5.13-17.13l-.11,0c-1.75,6.11-.45,13.64,5.18,17.25a3.49,3.49,0,0,1,0,1.84c-.2.24-.43.51-.62.78h0l0,.17a3.47,3.47,0,0,0,1.67.3A26,26,0,0,0,34.75,24"/><path class="cls-1" d="M32.85,28.35h0a12,12,0,0,0,3.08-1,8,8,0,0,0,1.39-.77h0a3,3,0,0,0,.23-.19l-.07-.08-.23.18a8.88,8.88,0,0,1-1.37.76,12.18,12.18,0,0,1-3.05,1l-.33,0a15.07,15.07,0,0,0,2.9-2.45,3.69,3.69,0,0,0,.1-1.2h-.11a4.28,4.28,0,0,1-.08,1.14,15.27,15.27,0,0,1-2.87,2.42l0,.13,0,.11a4,4,0,0,1,.41-.08"/><path class="cls-1" d="M46.45,11a.14.14,0,0,0,0,.06l.1,0a.21.21,0,0,0,0-.06l-.15-.14a4.62,4.62,0,0,0-1.87,2.42v.06a11,11,0,0,1,0,1.45c-2.48.26-2.21,2.52-2.33,4.28a8,8,0,0,1-.8,3.12A24.51,24.51,0,0,0,40,25.11l.1,0a27,27,0,0,1,1.4-2.92,8.16,8.16,0,0,0,.81-3.15c.13-1.82-.13-3.93,2.23-4.18.15,0,.13-1,.07-1.57A4.49,4.49,0,0,1,46.45,11"/><path class="cls-1" d="M82.12,28.49l.36-.2-.07-.21A23.19,23.19,0,0,1,75,27.74c-1.69-.33-3.39-.75-5.1-1.11l0,.1c1.7.37,3.4.79,5.1,1.12a23.14,23.14,0,0,0,7.41.34c-.12.07-.24.14-.37.2a15.11,15.11,0,0,1-5.59,1.52c-2,.21-4.08.24-6.11.46A62.65,62.65,0,0,0,64,31.45c-1.95.41-3.89.86-5.81,1.4a48,48,0,0,1-5,1.29,7.92,7.92,0,0,1-4.77-.32,2.87,2.87,0,0,1-1.48-2.24l-.11,0a3,3,0,0,0,1.54,2.32,8.1,8.1,0,0,0,4.84.33,48.16,48.16,0,0,0,5-1.29h0c1.91-.54,3.86-1,5.8-1.4a62.93,62.93,0,0,1,6.38-1.08c2.08-.22,4-.24,6.11-.46a15.23,15.23,0,0,0,5.64-1.53"/></g></g></svg>