<svg id="Laag_1" data-name="Laag 1" xmlns="http://www.w3.org/2000/svg" viewBox="0 0 796.6 741.45"><defs><style>.cls-1{fill:#efefef;}.cls-14,.cls-2{fill:#d6d6d6;}.cls-17,.cls-3,.cls-6,.cls-9{fill:#fff;}.cls-4{fill:#b3b4b3;}.cls-5,.cls-6{opacity:0.59;}.cls-11,.cls-12,.cls-13,.cls-14,.cls-15,.cls-17,.cls-6,.cls-8,.cls-9{isolation:isolate;}.cls-16,.cls-7{fill:#fcc006;}.cls-11,.cls-14,.cls-9{font-size:17px;}.cls-11,.cls-12,.cls-13,.cls-14,.cls-15,.cls-17,.cls-9{font-family:AauxNext-Black, Aaux Next;font-weight:800;}.cls-10{letter-spacing:-0.04em;}.cls-11,.cls-12,.cls-13,.cls-15{fill:#080909;}.cls-12{font-size:16px;}.cls-13,.cls-17{font-size:20px;}.cls-15{font-size:15px;}.cls-16{opacity:0.59;}</style></defs><title>plattegrond</title><rect id="Rectangle_164" data-name="Rectangle 164" class="cls-1" x="327.8" y="218.84" width="421.56" height="318.21"/><rect id="Rectangle_165" data-name="Rectangle 165" class="cls-1" x="27.57" y="218.83" width="313.58" height="482.47"/><rect id="Rectangle_71" data-name="Rectangle 71" class="cls-1" x="330.2" y="219.29" width="421.56" height="318.21"/><rect id="Rectangle_72" data-name="Rectangle 72" class="cls-2" x="339.31" y="529.72" width="412.45" height="172.04"/><rect id="Rectangle_73" data-name="Rectangle 73" class="cls-2" x="47.2" y="245.62" width="118.04" height="29.12"/><rect id="Rectangle_74" data-name="Rectangle 74" class="cls-2" x="47.2" y="310.85" width="118.04" height="29.12"/><rect id="Rectangle_75" data-name="Rectangle 75" class="cls-2" x="47.2" y="376.08" width="118.04" height="29.12"/><rect id="Rectangle_76" data-name="Rectangle 76" class="cls-2" x="47.2" y="441.32" width="118.04" height="29.12"/><rect id="Rectangle_77" data-name="Rectangle 77" class="cls-2" x="47.2" y="506.55" width="118.04" height="29.12"/><rect id="Rectangle_78" data-name="Rectangle 78" class="cls-2" x="47.2" y="571.79" width="118.04" height="29.12"/><rect id="Rectangle_79" data-name="Rectangle 79" class="cls-2" x="169.51" y="279.01" width="27.57" height="27.57"/><rect id="Rectangle_80" data-name="Rectangle 80" class="cls-2" x="171.84" y="539.95" width="27.57" height="27.57"/><rect id="Rectangle_81" data-name="Rectangle 81" class="cls-3" x="47.2" y="278.62" width="118.04" height="28.73"/><rect id="Rectangle_82" data-name="Rectangle 82" class="cls-3" x="47.2" y="539.17" width="118.04" height="28.73"/><rect id="Rectangle_83" data-name="Rectangle 83" class="cls-3" x="47.2" y="408.7" width="118.04" height="28.73"/><g id="Group_105" data-name="Group 105"><g id="Group_104" data-name="Group 104"><rect id="Rectangle_84" data-name="Rectangle 84" class="cls-3" x="375.43" y="631.83" width="26.2" height="65.14"/><rect id="Rectangle_85" data-name="Rectangle 85" class="cls-3" x="401.63" y="631.83" width="26.2" height="65.14"/></g></g><g id="Group_107" data-name="Group 107"><g id="Group_106" data-name="Group 106"><rect id="Rectangle_86" data-name="Rectangle 86" class="cls-3" x="518.11" y="631.83" width="26.2" height="65.14"/><rect id="Rectangle_87" data-name="Rectangle 87" class="cls-3" x="544.31" y="631.83" width="26.2" height="65.14"/></g></g><g id="Group_109" data-name="Group 109"><g id="Group_108" data-name="Group 108"><rect id="Rectangle_88" data-name="Rectangle 88" class="cls-3" x="660.79" y="631.83" width="26.2" height="65.14"/><rect id="Rectangle_89" data-name="Rectangle 89" class="cls-3" x="686.99" y="631.83" width="26.2" height="65.14"/></g></g><g id="Group_111" data-name="Group 111"><g id="Group_110" data-name="Group 110"><rect id="Rectangle_90" data-name="Rectangle 90" class="cls-3" x="368.53" y="461.55" width="65.14" height="23.47"/><rect id="Rectangle_91" data-name="Rectangle 91" class="cls-3" x="368.53" y="485.02" width="65.14" height="23.47"/></g></g><g id="Group_113" data-name="Group 113"><g id="Group_112" data-name="Group 112"><rect id="Rectangle_92" data-name="Rectangle 92" class="cls-3" x="511.16" y="461.59" width="65.14" height="23.47"/><rect id="Rectangle_93" data-name="Rectangle 93" class="cls-3" x="511.16" y="485.06" width="65.14" height="23.47"/></g></g><g id="Group_115" data-name="Group 115"><g id="Group_114" data-name="Group 114"><rect id="Rectangle_94" data-name="Rectangle 94" class="cls-3" x="653.88" y="461.55" width="65.14" height="23.47"/><rect id="Rectangle_95" data-name="Rectangle 95" class="cls-3" x="653.88" y="485.02" width="65.14" height="23.47"/></g></g><rect id="Rectangle_96" data-name="Rectangle 96" class="cls-4" x="330.52" y="529.72" width="10.68" height="172.04"/><g id="Group_117" data-name="Group 117" class="cls-5"><g id="Group_116" data-name="Group 116"><rect id="Rectangle_97" data-name="Rectangle 97" class="cls-3" x="433.75" y="667.96" width="4.37" height="29.01"/><rect id="Rectangle_98" data-name="Rectangle 98" class="cls-3" x="433.75" y="631.83" width="4.37" height="29.01"/></g></g><g id="Group_119" data-name="Group 119" class="cls-5"><g id="Group_118" data-name="Group 118"><rect id="Rectangle_99" data-name="Rectangle 99" class="cls-3" x="365.09" y="667.96" width="4.37" height="29.01"/><rect id="Rectangle_100" data-name="Rectangle 100" class="cls-3" x="365.09" y="631.83" width="4.37" height="29.01"/></g></g><g id="Group_121" data-name="Group 121" class="cls-5"><g id="Group_120" data-name="Group 120"><rect id="Rectangle_101" data-name="Rectangle 101" class="cls-3" x="576.41" y="667.96" width="4.37" height="29.01"/><rect id="Rectangle_102" data-name="Rectangle 102" class="cls-3" x="576.41" y="631.83" width="4.37" height="29.01"/></g></g><g id="Group_123" data-name="Group 123" class="cls-5"><g id="Group_122" data-name="Group 122"><rect id="Rectangle_103" data-name="Rectangle 103" class="cls-3" x="507.8" y="667.96" width="4.37" height="29.01"/><rect id="Rectangle_104" data-name="Rectangle 104" class="cls-3" x="507.8" y="631.83" width="4.37" height="29.01"/></g></g><g id="Group_125" data-name="Group 125" class="cls-5"><g id="Group_124" data-name="Group 124"><rect id="Rectangle_105" data-name="Rectangle 105" class="cls-3" x="719.1" y="667.96" width="4.37" height="29.01"/><rect id="Rectangle_106" data-name="Rectangle 106" class="cls-3" x="719.1" y="631.83" width="4.37" height="29.01"/></g></g><rect id="Rectangle_107" data-name="Rectangle 107" class="cls-6" x="724.94" y="470.51" width="4.37" height="29.01"/><rect id="Rectangle_108" data-name="Rectangle 108" class="cls-6" x="643.6" y="470.51" width="4.37" height="29.01"/><rect id="Rectangle_109" data-name="Rectangle 109" class="cls-6" x="500.87" y="470.51" width="4.37" height="29.01"/><rect id="Rectangle_110" data-name="Rectangle 110" class="cls-6" x="582.21" y="470.51" width="4.37" height="29.01"/><rect id="Rectangle_111" data-name="Rectangle 111" class="cls-6" x="358.24" y="470.51" width="4.37" height="29.01"/><rect id="Rectangle_112" data-name="Rectangle 112" class="cls-6" x="439.58" y="470.51" width="4.37" height="29.01"/><rect id="Rectangle_113" data-name="Rectangle 113" class="cls-6" x="384.29" y="451.2" width="29.01" height="4.37"/><rect id="Rectangle_114" data-name="Rectangle 114" class="cls-6" x="528.23" y="451.2" width="29.01" height="4.37"/><rect id="Rectangle_115" data-name="Rectangle 115" class="cls-6" x="672.17" y="451.2" width="29.01" height="4.37"/><g id="Group_127" data-name="Group 127" class="cls-5"><g id="Group_126" data-name="Group 126"><rect id="Rectangle_116" data-name="Rectangle 116" class="cls-3" x="650.49" y="667.96" width="4.37" height="29.01"/><rect id="Rectangle_117" data-name="Rectangle 117" class="cls-3" x="650.49" y="631.83" width="4.37" height="29.01"/></g></g><g id="Group_128" data-name="Group 128"><rect id="Rectangle_118" data-name="Rectangle 118" class="cls-1" x="352.14" y="553.38" width="382.33" height="4.16"/><rect id="Rectangle_119" data-name="Rectangle 119" class="cls-1" x="352.14" y="541.66" width="4.16" height="15.49"/><rect id="Rectangle_120" data-name="Rectangle 120" class="cls-1" x="352.14" y="537.51" width="77.45" height="4.16"/><rect id="Rectangle_121" data-name="Rectangle 121" class="cls-1" x="504.01" y="537.51" width="77.45" height="4.16"/><rect id="Rectangle_122" data-name="Rectangle 122" class="cls-1" x="657.02" y="537.51" width="77.45" height="4.16"/><rect id="Rectangle_123" data-name="Rectangle 123" class="cls-1" x="425.43" y="541.66" width="4.16" height="15.49"/><rect id="Rectangle_124" data-name="Rectangle 124" class="cls-1" x="504.01" y="541.66" width="4.16" height="15.49"/><rect id="Rectangle_125" data-name="Rectangle 125" class="cls-1" x="577.68" y="541.66" width="4.16" height="15.49"/><rect id="Rectangle_126" data-name="Rectangle 126" class="cls-1" x="657.02" y="541.66" width="4.16" height="15.49"/><rect id="Rectangle_127" data-name="Rectangle 127" class="cls-1" x="730.31" y="541.66" width="4.16" height="15.49"/><rect id="Rectangle_128" data-name="Rectangle 128" class="cls-1" x="352.14" y="541.66" width="4.16" height="15.49"/><rect id="Rectangle_129" data-name="Rectangle 129" class="cls-1" x="730.31" y="541.66" width="4.16" height="15.49"/><rect id="Rectangle_130" data-name="Rectangle 130" class="cls-1" x="352.14" y="553.38" width="382.33" height="4.16"/><rect id="Rectangle_131" data-name="Rectangle 131" class="cls-1" x="352.14" y="537.51" width="77.45" height="4.16"/><rect id="Rectangle_132" data-name="Rectangle 132" class="cls-1" x="504.01" y="537.51" width="77.45" height="4.16"/><rect id="Rectangle_133" data-name="Rectangle 133" class="cls-1" x="657.02" y="537.51" width="77.45" height="4.16"/><rect id="Rectangle_134" data-name="Rectangle 134" class="cls-1" x="425.43" y="541.66" width="4.16" height="15.49"/><rect id="Rectangle_135" data-name="Rectangle 135" class="cls-1" x="504.01" y="541.66" width="4.16" height="15.49"/><rect id="Rectangle_136" data-name="Rectangle 136" class="cls-1" x="577.68" y="541.66" width="4.16" height="15.49"/><rect id="Rectangle_137" data-name="Rectangle 137" class="cls-1" x="657.02" y="541.66" width="4.16" height="15.49"/></g><g id="Group_131" data-name="Group 131" class="cls-5"><g id="Group_130" data-name="Group 130"><g id="Group_129" data-name="Group 129"><rect id="Rectangle_138" data-name="Rectangle 138" class="cls-3" x="356.3" y="577.34" width="30.96" height="4.67"/><rect id="Rectangle_139" data-name="Rectangle 139" class="cls-3" x="394.85" y="577.34" width="30.96" height="4.67"/></g><rect id="Rectangle_140" data-name="Rectangle 140" class="cls-3" x="508.55" y="577.34" width="30.96" height="4.67"/><rect id="Rectangle_141" data-name="Rectangle 141" class="cls-3" x="547.1" y="577.34" width="30.96" height="4.67"/></g><rect id="Rectangle_142" data-name="Rectangle 142" class="cls-3" x="660.8" y="577.34" width="30.96" height="4.67"/><rect id="Rectangle_143" data-name="Rectangle 143" class="cls-3" x="699.35" y="577.34" width="30.96" height="4.67"/></g><rect id="Rectangle_144" data-name="Rectangle 144" class="cls-3" x="356.3" y="541.71" width="69.51" height="30.66"/><rect id="Rectangle_145" data-name="Rectangle 145" class="cls-3" x="508.55" y="541.71" width="69.51" height="30.66"/><rect id="Rectangle_146" data-name="Rectangle 146" class="cls-3" x="660.8" y="541.23" width="69.51" height="30.66"/><rect id="Rectangle_147" data-name="Rectangle 147" class="cls-2" x="364.78" y="219.29" width="334.96" height="194.93"/><path id="Rectangle_148" data-name="Rectangle 148" class="cls-7" d="M133.18,27.87H343.67V218.93H30.09V131A103.08,103.08,0,0,1,133.18,27.87Z"/><g id="Praktijkruimte" class="cls-8"><text class="cls-9" transform="translate(133.09 139.23)">P<tspan class="cls-10" x="10.56" y="0">r</tspan><tspan x="16.74" y="0">aktijkruimte</tspan></text></g><rect id="Rectangle_149" data-name="Rectangle 149" class="cls-4" x="481.87" y="419.41" width="97.58" height="4.68" rx="1.23"/><rect id="Rectangle_150" data-name="Rectangle 150" class="cls-4" x="481.87" y="404.56" width="97.58" height="4.68" rx="1.23"/><g id="_4" data-name=" 4" class="cls-8"><text class="cls-11" transform="translate(394.85 671.04)">4</text></g><g id="_5" data-name=" 5" class="cls-8"><text class="cls-11" transform="translate(540.98 671.04)">5</text></g><g id="_6" data-name=" 6" class="cls-8"><text class="cls-11" transform="translate(682.94 671.04)">6</text></g><g id="_7" data-name=" 7" class="cls-8"><text class="cls-11" transform="translate(384.29 563.79)">7</text></g><g id="_8" data-name=" 8" class="cls-8"><text class="cls-11" transform="translate(540.98 563.79)">8</text></g><g id="_11" data-name=" 11" class="cls-8"><text class="cls-12" transform="translate(537.19 490.86)">11</text></g><g class="cls-8"><text class="cls-13" transform="translate(168.09 115.62)">14*</text></g><g id="Group_143" data-name="Group 143"><rect id="Rectangle_155" data-name="Rectangle 155" class="cls-3" x="449.09" y="296.74" width="163.15" height="62.7"/><rect id="Rectangle_156" data-name="Rectangle 156" class="cls-6" x="459.98" y="261.8" width="26.11" height="26.11"/><rect id="Rectangle_157" data-name="Rectangle 157" class="cls-6" x="517.6" y="261.8" width="26.11" height="26.11"/><rect id="Rectangle_158" data-name="Rectangle 158" class="cls-6" x="575.23" y="261.8" width="26.11" height="26.11"/><rect id="Rectangle_159" data-name="Rectangle 159" class="cls-6" x="459.98" y="368.26" width="26.11" height="26.11"/><rect id="Rectangle_160" data-name="Rectangle 160" class="cls-6" x="517.6" y="368.26" width="26.11" height="26.11"/><rect id="Rectangle_161" data-name="Rectangle 161" class="cls-6" x="575.23" y="368.26" width="26.11" height="26.11"/><rect id="Rectangle_162" data-name="Rectangle 162" class="cls-6" x="621.06" y="315.22" width="26.11" height="26.11"/><rect id="Rectangle_163" data-name="Rectangle 163" class="cls-6" x="414.15" y="315.22" width="26.11" height="26.11"/><g id="_t_Hok" data-name=" t Hok" class="cls-8"><text class="cls-14" transform="translate(508.51 345.85)">‘t Hok</text></g><g class="cls-8"><text class="cls-12" transform="translate(524.41 321.23)">13*</text></g></g><g id="_12" data-name=" 12" class="cls-8"><text class="cls-15" transform="translate(676.28 489.86)">12</text></g><g id="_10" data-name=" 10" class="cls-8"><text class="cls-12" transform="translate(394.85 490.86)">10</text></g><g id="_9" data-name=" 9" class="cls-8"><text class="cls-11" transform="translate(691.76 563.79)">9</text></g><rect id="Rectangle_164-2" data-name="Rectangle 164" class="cls-1" x="330.32" y="218.94" width="421.56" height="318.21"/><rect id="Rectangle_166" data-name="Rectangle 166" class="cls-2" x="339.43" y="529.37" width="412.45" height="172.04"/><rect id="Rectangle_167" data-name="Rectangle 167" class="cls-16" x="47.32" y="245.26" width="118.04" height="29.12"/><rect id="Rectangle_168" data-name="Rectangle 168" class="cls-16" x="47.32" y="310.5" width="118.04" height="29.12"/><rect id="Rectangle_169" data-name="Rectangle 169" class="cls-16" x="47.32" y="375.73" width="118.04" height="29.12"/><rect id="Rectangle_170" data-name="Rectangle 170" class="cls-16" x="47.32" y="440.96" width="118.04" height="29.12"/><rect id="Rectangle_171" data-name="Rectangle 171" class="cls-16" x="47.32" y="506.2" width="118.04" height="29.12"/><rect id="Rectangle_172" data-name="Rectangle 172" class="cls-16" x="47.32" y="571.43" width="118.04" height="29.12"/><rect id="Rectangle_173" data-name="Rectangle 173" class="cls-16" x="169.63" y="278.65" width="27.57" height="27.57"/><rect id="Rectangle_174" data-name="Rectangle 174" class="cls-16" x="171.96" y="539.59" width="27.57" height="27.57"/><rect id="Rectangle_175" data-name="Rectangle 175" class="cls-7" x="47.32" y="278.27" width="118.04" height="28.73"/><rect id="Rectangle_176" data-name="Rectangle 176" class="cls-7" x="47.32" y="538.82" width="118.04" height="28.73"/><rect id="Rectangle_177" data-name="Rectangle 177" class="cls-7" x="47.32" y="408.35" width="118.04" height="28.73"/><g id="Group_145" data-name="Group 145"><g id="Group_144" data-name="Group 144"><rect id="Rectangle_178" data-name="Rectangle 178" class="cls-7" x="366.55" y="631.47" width="26.2" height="65.14"/><rect id="Rectangle_179" data-name="Rectangle 179" class="cls-7" x="392.75" y="631.47" width="26.2" height="65.14"/></g></g><g id="Group_147" data-name="Group 147"><g id="Group_146" data-name="Group 146"><rect id="Rectangle_180" data-name="Rectangle 180" class="cls-7" x="518.23" y="631.47" width="26.2" height="65.14"/><rect id="Rectangle_181" data-name="Rectangle 181" class="cls-7" x="544.43" y="631.47" width="26.2" height="65.14"/></g></g><g id="Group_149" data-name="Group 149"><g id="Group_148" data-name="Group 148"><rect id="Rectangle_182" data-name="Rectangle 182" class="cls-7" x="667.91" y="631.47" width="26.2" height="65.14"/><rect id="Rectangle_183" data-name="Rectangle 183" class="cls-7" x="694.11" y="631.47" width="26.2" height="65.14"/></g></g><g id="Group_151" data-name="Group 151"><g id="Group_150" data-name="Group 150"><rect id="Rectangle_184" data-name="Rectangle 184" class="cls-7" x="368.64" y="461.19" width="65.14" height="23.47"/><rect id="Rectangle_185" data-name="Rectangle 185" class="cls-7" x="368.64" y="484.66" width="65.14" height="23.47"/></g></g><g id="Group_153" data-name="Group 153"><g id="Group_152" data-name="Group 152"><rect id="Rectangle_186" data-name="Rectangle 186" class="cls-7" x="511.27" y="461.23" width="65.14" height="23.47"/><rect id="Rectangle_187" data-name="Rectangle 187" class="cls-7" x="511.27" y="484.71" width="65.14" height="23.47"/></g></g><g id="Group_155" data-name="Group 155"><g id="Group_154" data-name="Group 154"><rect id="Rectangle_188" data-name="Rectangle 188" class="cls-7" x="654" y="461.19" width="65.14" height="23.47"/><rect id="Rectangle_189" data-name="Rectangle 189" class="cls-7" x="654" y="484.66" width="65.14" height="23.47"/></g></g><rect id="Rectangle_190" data-name="Rectangle 190" class="cls-4" x="330.64" y="529.37" width="10.68" height="172.04"/><g id="Group_157" data-name="Group 157" class="cls-5"><g id="Group_156" data-name="Group 156"><rect id="Rectangle_191" data-name="Rectangle 191" class="cls-16" x="424.87" y="667.6" width="4.37" height="29.01"/><rect id="Rectangle_192" data-name="Rectangle 192" class="cls-16" x="424.87" y="631.47" width="4.37" height="29.01"/></g></g><g id="Group_159" data-name="Group 159" class="cls-5"><g id="Group_158" data-name="Group 158"><rect id="Rectangle_193" data-name="Rectangle 193" class="cls-16" x="356.21" y="667.6" width="4.37" height="29.01"/><rect id="Rectangle_194" data-name="Rectangle 194" class="cls-16" x="356.21" y="631.47" width="4.37" height="29.01"/></g></g><g id="Group_161" data-name="Group 161" class="cls-5"><g id="Group_160" data-name="Group 160"><rect id="Rectangle_195" data-name="Rectangle 195" class="cls-16" x="576.53" y="667.6" width="4.37" height="29.01"/><rect id="Rectangle_196" data-name="Rectangle 196" class="cls-16" x="576.53" y="631.47" width="4.37" height="29.01"/></g></g><g id="Group_163" data-name="Group 163" class="cls-5"><g id="Group_162" data-name="Group 162"><rect id="Rectangle_197" data-name="Rectangle 197" class="cls-16" x="507.92" y="667.6" width="4.37" height="29.01"/><rect id="Rectangle_198" data-name="Rectangle 198" class="cls-16" x="507.92" y="631.47" width="4.37" height="29.01"/></g></g><g id="Group_165" data-name="Group 165" class="cls-5"><g id="Group_164" data-name="Group 164"><rect id="Rectangle_199" data-name="Rectangle 199" class="cls-16" x="726.22" y="667.6" width="4.37" height="29.01"/><rect id="Rectangle_200" data-name="Rectangle 200" class="cls-16" x="726.22" y="631.47" width="4.37" height="29.01"/></g></g><rect id="Rectangle_201" data-name="Rectangle 201" class="cls-16" x="725.06" y="470.16" width="4.37" height="29.01"/><rect id="Rectangle_202" data-name="Rectangle 202" class="cls-16" x="643.71" y="470.16" width="4.37" height="29.01"/><rect id="Rectangle_203" data-name="Rectangle 203" class="cls-16" x="500.99" y="470.16" width="4.37" height="29.01"/><rect id="Rectangle_204" data-name="Rectangle 204" class="cls-16" x="582.33" y="470.16" width="4.37" height="29.01"/><rect id="Rectangle_205" data-name="Rectangle 205" class="cls-16" x="358.36" y="470.16" width="4.37" height="29.01"/><rect id="Rectangle_206" data-name="Rectangle 206" class="cls-16" x="439.7" y="470.16" width="4.37" height="29.01"/><rect id="Rectangle_207" data-name="Rectangle 207" class="cls-16" x="384.41" y="450.84" width="29.01" height="4.37"/><rect id="Rectangle_208" data-name="Rectangle 208" class="cls-16" x="528.35" y="450.84" width="29.01" height="4.37"/><rect id="Rectangle_209" data-name="Rectangle 209" class="cls-16" x="672.29" y="450.84" width="29.01" height="4.37"/><g id="Group_167" data-name="Group 167" class="cls-5"><g id="Group_166" data-name="Group 166"><rect id="Rectangle_210" data-name="Rectangle 210" class="cls-16" x="657.61" y="667.6" width="4.37" height="29.01"/><rect id="Rectangle_211" data-name="Rectangle 211" class="cls-16" x="657.61" y="631.47" width="4.37" height="29.01"/></g></g><g id="Group_168" data-name="Group 168"><rect id="Rectangle_212" data-name="Rectangle 212" class="cls-1" x="352.26" y="553.02" width="382.33" height="4.16"/><rect id="Rectangle_213" data-name="Rectangle 213" class="cls-1" x="352.26" y="541.31" width="4.16" height="15.49"/><rect id="Rectangle_214" data-name="Rectangle 214" class="cls-1" x="352.26" y="537.15" width="77.45" height="4.16"/><rect id="Rectangle_215" data-name="Rectangle 215" class="cls-1" x="504.13" y="537.15" width="77.45" height="4.16"/><rect id="Rectangle_216" data-name="Rectangle 216" class="cls-1" x="657.14" y="537.15" width="77.45" height="4.16"/><rect id="Rectangle_217" data-name="Rectangle 217" class="cls-1" x="425.55" y="541.31" width="4.16" height="15.49"/><rect id="Rectangle_218" data-name="Rectangle 218" class="cls-1" x="504.13" y="541.31" width="4.16" height="15.49"/><rect id="Rectangle_219" data-name="Rectangle 219" class="cls-1" x="577.8" y="541.31" width="4.16" height="15.49"/><rect id="Rectangle_220" data-name="Rectangle 220" class="cls-1" x="657.14" y="541.31" width="4.16" height="15.49"/><rect id="Rectangle_221" data-name="Rectangle 221" class="cls-1" x="730.43" y="541.31" width="4.16" height="15.49"/><rect id="Rectangle_222" data-name="Rectangle 222" class="cls-1" x="352.26" y="541.31" width="4.16" height="15.49"/><rect id="Rectangle_223" data-name="Rectangle 223" class="cls-1" x="730.43" y="541.31" width="4.16" height="15.49"/><rect id="Rectangle_224" data-name="Rectangle 224" class="cls-1" x="352.26" y="553.02" width="382.33" height="4.16"/><rect id="Rectangle_225" data-name="Rectangle 225" class="cls-1" x="352.26" y="537.15" width="77.45" height="4.16"/><rect id="Rectangle_226" data-name="Rectangle 226" class="cls-1" x="504.13" y="537.15" width="77.45" height="4.16"/><rect id="Rectangle_227" data-name="Rectangle 227" class="cls-1" x="657.14" y="537.15" width="77.45" height="4.16"/><rect id="Rectangle_228" data-name="Rectangle 228" class="cls-1" x="425.55" y="541.31" width="4.16" height="15.49"/><rect id="Rectangle_229" data-name="Rectangle 229" class="cls-1" x="504.13" y="541.31" width="4.16" height="15.49"/><rect id="Rectangle_230" data-name="Rectangle 230" class="cls-1" x="577.8" y="541.31" width="4.16" height="15.49"/><rect id="Rectangle_231" data-name="Rectangle 231" class="cls-1" x="657.14" y="541.31" width="4.16" height="15.49"/></g><g id="Group_171" data-name="Group 171" class="cls-5"><g id="Group_170" data-name="Group 170"><g id="Group_169" data-name="Group 169"><rect id="Rectangle_232" data-name="Rectangle 232" class="cls-16" x="356.41" y="576.99" width="30.96" height="4.67"/><rect id="Rectangle_233" data-name="Rectangle 233" class="cls-16" x="394.97" y="576.99" width="30.96" height="4.67"/></g><rect id="Rectangle_234" data-name="Rectangle 234" class="cls-16" x="508.66" y="576.99" width="30.96" height="4.67"/><rect id="Rectangle_235" data-name="Rectangle 235" class="cls-16" x="547.22" y="576.99" width="30.96" height="4.67"/></g><rect id="Rectangle_236" data-name="Rectangle 236" class="cls-16" x="660.92" y="576.99" width="30.96" height="4.67"/><rect id="Rectangle_237" data-name="Rectangle 237" class="cls-16" x="699.47" y="576.99" width="30.96" height="4.67"/></g><rect id="Rectangle_238" data-name="Rectangle 238" class="cls-7" x="356.41" y="541.35" width="69.51" height="30.66"/><rect id="Rectangle_239" data-name="Rectangle 239" class="cls-7" x="508.66" y="541.35" width="69.51" height="30.66"/><rect id="Rectangle_240" data-name="Rectangle 240" class="cls-7" x="660.92" y="540.88" width="69.51" height="30.66"/><rect id="Rectangle_241" data-name="Rectangle 241" class="cls-2" x="364.9" y="218.94" width="334.96" height="194.93"/><rect id="Rectangle_242" data-name="Rectangle 242" class="cls-4" x="481.99" y="419.06" width="97.58" height="4.68" rx="1.23"/><rect id="Rectangle_243" data-name="Rectangle 243" class="cls-4" x="481.99" y="404.2" width="97.58" height="4.68" rx="1.23"/><g id="_4-2" data-name=" 4-2" class="cls-8"><text class="cls-13" transform="translate(385.97 670.69)">4</text></g><g id="_5-2" data-name=" 5-2" class="cls-8"><text class="cls-13" transform="translate(538.1 670.69)">5</text></g><g id="_6-2" data-name=" 6-2" class="cls-8"><text class="cls-13" transform="translate(689.06 670.69)">6</text></g><g id="_7-2" data-name=" 7-2" class="cls-8"><text class="cls-13" transform="translate(384.41 563.43)">7</text></g><g id="_8-2" data-name=" 8-2" class="cls-8"><text class="cls-13" transform="translate(538.1 563.43)">8</text></g><g id="_11-2" data-name=" 11-2" class="cls-8"><text class="cls-13" transform="translate(534.31 490.5)">11</text></g><g id="Group_175" data-name="Group 175"><rect id="Rectangle_248" data-name="Rectangle 248" class="cls-7" x="449.09" y="296.39" width="163.15" height="62.7"/><rect id="Rectangle_249" data-name="Rectangle 249" class="cls-16" x="460.1" y="261.45" width="26.11" height="26.11"/><rect id="Rectangle_250" data-name="Rectangle 250" class="cls-16" x="517.72" y="261.45" width="26.11" height="26.11"/><rect id="Rectangle_251" data-name="Rectangle 251" class="cls-16" x="575.35" y="261.45" width="26.11" height="26.11"/><rect id="Rectangle_252" data-name="Rectangle 252" class="cls-16" x="460.1" y="367.91" width="26.11" height="26.11"/><rect id="Rectangle_253" data-name="Rectangle 253" class="cls-16" x="517.72" y="367.91" width="26.11" height="26.11"/><rect id="Rectangle_254" data-name="Rectangle 254" class="cls-16" x="575.35" y="367.91" width="26.11" height="26.11"/><rect id="Rectangle_255" data-name="Rectangle 255" class="cls-16" x="621.18" y="314.86" width="26.11" height="26.11"/><rect id="Rectangle_256" data-name="Rectangle 256" class="cls-16" x="414.27" y="314.86" width="26.11" height="26.11"/><g id="_t_Hok-2" data-name=" t Hok-2" class="cls-8"><text class="cls-17" transform="translate(505.63 345.49)">‘t Hok</text></g><g id="_13_2" data-name=" 13 2" class="cls-8"><text class="cls-13" transform="translate(517.09 320.88)">13*</text></g></g><g id="_12-2" data-name=" 12-2" class="cls-8"><text class="cls-13" transform="translate(677.4 489.5)">12</text></g><g id="_10-2" data-name=" 10-2" class="cls-8"><text class="cls-13" transform="translate(386.97 490.5)">10</text></g><g id="_9-2" data-name=" 9-2" class="cls-8"><text class="cls-13" transform="translate(689.88 563.43)">9</text></g></svg>