<svg xmlns="http://www.w3.org/2000/svg" viewBox="0 0 135.28 122.7"><defs><style>.cls-1{fill:#fff;}</style></defs><title>meet_the_expert_textMiddel 8</title><g id="Laag_2" data-name="Laag 2"><g id="Laag_1-2" data-name="Laag 1"><path class="cls-1" d="M19.31,13.79c-.31,1.47-.62,2.94-.94,4.4-.57,2.61-.47,5.35-1.42,7.89a8.39,8.39,0,0,0-.41,3.32,1.2,1.2,0,0,1-.67,1.21c-.45.23-.6.78-1,1-.1.06-.17.17-.27.23-.9.56-1.38.31-1.53-.72-.07-.5.08-1.14-.67-1.39-.28-.1-.15-.55-.1-.85.31-1.88.64-3.75.94-5.63.43-2.71.84-5.43,1.27-8.14.11-.67.36-1.33.42-2,.17-2,.58-3.93.94-5.88a2,2,0,0,0,.05-.63c-.28-1.31.58-2.08,1.31-2.94.46-.54,1.09-.85,1.54-1.38.18-.21.41-.17.65-.1a3.47,3.47,0,0,1,1.75,1.08c1.22,1.53,2.45,3.05,3.56,4.65a17.07,17.07,0,0,1,2,5.32c.44,1.56.86,3.13,1.3,4.69a4.73,4.73,0,0,0,.22.57c.35-.65.66-1.2.94-1.75,2-4,4.12-8,6-12.06.49-1.07,1.29-2,1.74-3.06.2-.5,1.12-.66,1.64-.47a1.39,1.39,0,0,0,1-.06c.62-.26,1.17-.12,1.35.5a23.39,23.39,0,0,1,1.3,4.82c.09,1.26.61,2.4.78,3.63a42.82,42.82,0,0,1,.51,6,67.61,67.61,0,0,0,.65,6.81,22.26,22.26,0,0,1,.1,5.41,9.38,9.38,0,0,0,.09,2.31c.13,1.12,0,2.21,0,3.31,0,.63-.27.92-.89.86a.83.83,0,0,0-.77.3c-.18.18-.71,0-1.07,0-1,.11-2.08-.2-3.11-.07s-1-.57-1.11-1.14a5.58,5.58,0,0,1-.17-1.47c0-4.07-.31-8.13-.42-12.2,0-1.12,0-2.25,0-3.38,0-1.7-.11-3.41-.18-5.17-.33.08-.36.34-.43.54-1,2.69-2.3,5.26-3.37,7.92-1.25,3.09-2.71,6.09-3.86,9.23A6.77,6.77,0,0,1,27.29,32c-.32.3-.58.45-1,0a5.87,5.87,0,0,0-1.79-1A.81.81,0,0,1,24,30.5c-.54-1.75-1.38-3.41-1.52-5.27a23.41,23.41,0,0,0-1.15-5.79c-.65-1.86-1.2-3.75-1.79-5.63Z"/><path class="cls-1" d="M90.17,112c.28.24.14.56.29.9a6.63,6.63,0,0,0,.5-4.45c.38.23.15.62.42,1,1-3.44,1.63-6.89,2.35-10.33s1.15-6.93,2.2-10.36c-1.14.92-2.31,3.74-3.22,7.68.67-.24.72.11.58.61a17.34,17.34,0,0,1-1.13,3.37c-.08.14-.14.33-.26.41-.75.44-.79,1.18-.85,1.91,0,.12-.42.58.21.35,0,0,.07.12.06.17-.17.88.2,1.82-.47,2.65-.36.43-.12,1.08-.16,1.64-.06,1,.2,2-.46,2.84a7.93,7.93,0,0,1-.75-4.52,53.86,53.86,0,0,1,1.27-8.57A30.05,30.05,0,0,1,94.12,89a14,14,0,0,1,3.61-3.87,3.84,3.84,0,0,0,.54-.44,3.8,3.8,0,0,1,5.45,0,18,18,0,0,1,4.79,7.92,5.59,5.59,0,0,1,0,3.24c-.47,1.65-.8,3.37-2.09,4.66-.23.23-.17.44-.07.74a30.21,30.21,0,0,1,1.64,4.89c.14,1,.13,2,.18,2.93.14,2.21.14,4.43.17,6.65,0,1.45,0,1.55-1.33,1.94a5.47,5.47,0,0,1-3.47.21,1,1,0,0,1-.75-.92,70.71,70.71,0,0,0-1-7.54,39.77,39.77,0,0,1-.94-5.93c0-.32,0-.7-.48-.68s-1-.08-1.08.59c-.28,1.39-.58,2.78-.9,4.16-.61,2.63-1.1,5.29-1.82,7.9a8,8,0,0,1-1.37,2.73c-.28.35-.55.61-1,.19a1.88,1.88,0,0,0-1.34-.29c-.5,0-.93-.3-1.44-.2-.1,0-.17-.07-.18-.18-.29-1.89-1.12-3.69-1.1-5.65C90.1,112,90.13,112,90.17,112Zm11.64-12.74a3.64,3.64,0,0,0,3-1.19,3.57,3.57,0,0,0,.76-1.47c.53-1.45,1.21-2.93.37-4.49a19,19,0,0,0-2.41-3.66c-.17-.19-.33-.5-.58-.45s-.35.43-.39.69c-.31,2-.79,4-.92,6a10.63,10.63,0,0,1-.61,3.42C100.51,99.22,100.23,99.29,101.81,99.22Z"/><path class="cls-1" d="M110.14,7a25.58,25.58,0,0,1-4.67-.11c-.42-.07-.62,0-.61.54a59.29,59.29,0,0,1-.38,8c-.31,2.92-.39,5.84-.59,8.76,0,.72-.2,1.44-.31,2.16a3,3,0,0,0-.06,1,.74.74,0,0,1-.26.85s-.08.06-.07.09a3.9,3.9,0,0,1-.21,1.66c-.08.36,0,.72-.06,1.07a22,22,0,0,1-.45,2.66,6.08,6.08,0,0,0-.15,1.22c0,.23,0,.34-.35.28a.71.71,0,0,0-.9.55.64.64,0,0,1-.95.49,3.16,3.16,0,0,0-2.06-.09c-.65.18-.85,0-1-.67a32.79,32.79,0,0,1-.5-5.15c0-2.75.24-5.49.29-8.24a14.26,14.26,0,0,0,.21-1.74,38,38,0,0,1,.17-5.64c.07-2.14,0-4.29.21-6.43A9.72,9.72,0,0,1,98,6.44c.12-.42.1-.61-.4-.74a11.33,11.33,0,0,1-2-.75,1.61,1.61,0,0,1-1-2.43c.54-1.42.54-1.45,2-1.12a14.85,14.85,0,0,0,4.68.36,15.83,15.83,0,0,1,3.51,0,9.74,9.74,0,0,1,2.26.64,13.13,13.13,0,0,0,4.79.9c.44,0,.73.18.78.63a3.71,3.71,0,0,0,.41,1,1.34,1.34,0,0,1-1,1.92A8.26,8.26,0,0,1,110.14,7Z"/><path class="cls-1" d="M39.22,48.1a23.48,23.48,0,0,1-4.06-.1c-.38-.06-.55,0-.54.47a52.31,52.31,0,0,1-.33,7C34,58,34,60.52,33.78,63.05c0,.63-.17,1.26-.27,1.88a2.54,2.54,0,0,0,0,.87.65.65,0,0,1-.23.74s-.07,0-.06.07A3.54,3.54,0,0,1,33,68.06c-.08.32,0,.63-.06.93a22.88,22.88,0,0,1-.38,2.32,5.3,5.3,0,0,0-.14,1.06c0,.2,0,.3-.31.24a.63.63,0,0,0-.78.48.56.56,0,0,1-.82.43,2.77,2.77,0,0,0-1.8-.08c-.56.16-.73,0-.83-.58a28.08,28.08,0,0,1-.43-4.48c0-2.4.21-4.78.24-7.18a10.74,10.74,0,0,0,.19-1.51A32.24,32.24,0,0,1,28,54.78c.06-1.86,0-3.73.18-5.59a9,9,0,0,1,.41-1.54c.1-.37.08-.53-.35-.64a9.18,9.18,0,0,1-1.77-.66c-1-.5-1.24-1.05-.84-2.11.47-1.24.47-1.26,1.76-1a12.77,12.77,0,0,0,4.07.32,13.5,13.5,0,0,1,3.05,0,7.8,7.8,0,0,1,2,.56,11.9,11.9,0,0,0,4.17.78c.39,0,.63.15.68.54a3.64,3.64,0,0,0,.35.84A1.16,1.16,0,0,1,40.84,48,7.29,7.29,0,0,1,39.22,48.1Z"/><path class="cls-1" d="M131.75,84.35a32.32,32.32,0,0,1-5.53-.13c-.51-.09-.75,0-.73.63a71.63,71.63,0,0,1-.45,9.49c-.37,3.45-.46,6.91-.69,10.37-.06.86-.24,1.71-.38,2.56a3.58,3.58,0,0,0-.06,1.18.9.9,0,0,1-.31,1s-.1.08-.09.1a4.38,4.38,0,0,1-.25,2c-.1.44,0,.86-.07,1.27a28.15,28.15,0,0,1-.53,3.16,6.85,6.85,0,0,0-.18,1.45c0,.26,0,.4-.42.32a.85.85,0,0,0-1.06.66.77.77,0,0,1-1.13.58,3.78,3.78,0,0,0-2.44-.11c-.76.22-1,0-1.13-.79a37.74,37.74,0,0,1-.59-6.1c0-3.26.28-6.51.33-9.77a15.67,15.67,0,0,0,.26-2.06,43.79,43.79,0,0,1,.2-6.68c.08-2.54,0-5.09.24-7.62a12.38,12.38,0,0,1,.56-2.09c.14-.5.12-.73-.47-.88a13,13,0,0,1-2.42-.89c-1.42-.68-1.69-1.43-1.14-2.87.64-1.69.65-1.72,2.4-1.34a17,17,0,0,0,5.54.43,18.64,18.64,0,0,1,4.16.06,10.93,10.93,0,0,1,2.68.76,16.23,16.23,0,0,0,5.67,1.06c.53,0,.87.21.93.74a4.59,4.59,0,0,0,.48,1.14A1.6,1.6,0,0,1,134,84.23,11,11,0,0,1,131.75,84.35Z"/><path class="cls-1" d="M65.55,91.61a4.3,4.3,0,0,1-1,3.17c-.83,1-1,2.32-1.81,3.3a12.69,12.69,0,0,1-3.47,3.3,10.31,10.31,0,0,1-2.84.94.87.87,0,0,0-.77,1A34.5,34.5,0,0,1,53.73,113a15.94,15.94,0,0,0-.66,3.41,1.14,1.14,0,0,1-1.86.9c-.15-.1-.2.06-.29,0-.35-.09-.73,0-1-.33s-.25.49-.65.25.06-.79-.34-.58-1,.11-1.47.26c-.84.26-1.32-.13-1.29-1,.06-1.74.3-3.49.23-5.23a55.33,55.33,0,0,1,.46-8.92c.43-3.51.51-7.06,1.12-10.55a32.82,32.82,0,0,1,1.88-6.37,2.33,2.33,0,0,0,.22-.86,1.2,1.2,0,0,1,.41-.86c.36-.37.79-.62,1-1.21s.86-.29,1.32-.35.79.17,1.07-.28a.27.27,0,0,1,.25,0c.91.56,2,.09,2.93.42a18.39,18.39,0,0,0,1.92.16,6.78,6.78,0,0,1,4.37,2.94A11.23,11.23,0,0,1,65.55,91.61Zm-9.39,6.23c.05.09-.16.48.13.66s.55-.15.81-.29a5,5,0,0,0,1.31-1,8.48,8.48,0,0,0,2.27-7.34,5.16,5.16,0,0,0-3.5-4.49c-.47-.16-.67,0-.7.5-.1,1.66,0,3.31-.1,5C56.19,93.1,56.22,95.38,56.16,97.84Z"/><path class="cls-1" d="M31,93.66c.34-1,.62-1.76.9-2.54.57-1.59,1-3.28,2.15-4.58a5.91,5.91,0,0,1,2.48-1.72,3.9,3.9,0,0,1,2.15.07,3.91,3.91,0,0,0,1.29.19c.45-.08.51.61.94.73.59.18.34.59.26,1a23.46,23.46,0,0,1-.56,2.87c0,.12-.08.24,0,.33.72.65.38,1.42.23,2.15a7.14,7.14,0,0,1-.5,1.38c-1.23,2.8-1.6,5.83-2.36,8.75a28.84,28.84,0,0,1-1.09,3.68,2.14,2.14,0,0,0,0,1.63q1.38,3.89,2.94,7.71c.79,1.94,1.42,3.94,2.11,5.92A4.72,4.72,0,0,1,42,122a.44.44,0,0,1-.13.45,1.58,1.58,0,0,1-2.11-.24,13.1,13.1,0,0,1-1.71-3c-.79-2.16-2-4.15-2.8-6.31-.21-.56-.44-1.12-.71-1.79a28.73,28.73,0,0,0-1.95,3.64c-.5,1.2-.82,2.46-1.94,3.31-.3.23-.64.59-.26,1.08.11.14,0,.31-.15.42s-.26.1-.31,0c-.28-.45-.74-.33-1.13-.37a11,11,0,0,1-3.19-1.37,2.89,2.89,0,0,0-.77-.31c-.84-.12-1.06-.36-1.16-1.23a3.06,3.06,0,0,1,.36-1.83A16.87,16.87,0,0,0,25.56,110a38.35,38.35,0,0,1,3.5-9.56A3.09,3.09,0,0,0,29,97c-1.48-2.36-2.47-5-3.77-7.48a18.22,18.22,0,0,0-1.76-3.25c0-.06-.1-.13-.09-.18a6.08,6.08,0,0,0-.3-2.32c0-.21.12-.27.29-.3a1.12,1.12,0,0,1,1.13.34,28.17,28.17,0,0,1,3.17,4.51A44.48,44.48,0,0,1,31,93.66Z"/><path class="cls-1" d="M38.53,74.53a1.78,1.78,0,0,0-.42-1.19,2.42,2.42,0,0,1-.29-1.58,17.45,17.45,0,0,1,.61-4.31c.65-2.35.94-4.77,1.52-7.13.32-1.29.59-2.6,1-3.86A17.06,17.06,0,0,0,41.85,53a1.71,1.71,0,0,1,.52-1.16c.32-.22.91-.63,1.11-.5.56.37.85,0,1.23-.2a.33.33,0,0,1,.42,0,1.23,1.23,0,0,1,.45.89,5.82,5.82,0,0,1-.52,2.79,18.84,18.84,0,0,0-1.34,4.94c0,.37.05.48.42.48.77,0,1.54,0,2.31,0a.33.33,0,0,0,.39-.3c.4-1.81.79-3.61,1.19-5.42a7.24,7.24,0,0,1,.43-1.53c.18-.39.44-.86,1-.78a.25.25,0,0,0,.3-.2,2.46,2.46,0,0,1,.2-.47c.15-.27.32-.57.57-.06a.69.69,0,0,0,.31.27,1.3,1.3,0,0,1,.67,1.19,15.5,15.5,0,0,1-.08,3.47c-.11.57.09,1.18-.13,1.73a22.47,22.47,0,0,0-.86,4.21,10.9,10.9,0,0,0-.22,1.83,10.19,10.19,0,0,1-.48,2.19c-.42,1.59-.58,3.23-1,4.82-.29,1.15-.77,2.23-1.1,3.37,0,.09-.08.26-.17.23-.52-.15-1,.32-1.58,0s-1-.44-1.5-.73a.41.41,0,0,1-.17-.57c.22-.71.41-1.42.65-2.12a13.12,13.12,0,0,0,.63-3.57,11.28,11.28,0,0,1,.2-1.42c.06-.4-.08-.6-.5-.65a9.94,9.94,0,0,1-2-.35c-.23-.08-.28.07-.31.23s-.07.54-.11.81c-.19,1.13-.69,2.18-1,3.28-.22.87-.5,1.72-.74,2.58a3.68,3.68,0,0,1-1,1.83c-.11.1-.27.29-.39.17C39.34,73.94,39,74.23,38.53,74.53Z"/><path class="cls-1" d="M9.59,108.32a18.29,18.29,0,0,1-7.37-.71c-1.64-.56-2-.74-2.15-2.93a44.89,44.89,0,0,1,.51-9.33,90.55,90.55,0,0,1,1.89-9.66,17.9,17.9,0,0,1,4.73-8.6,2.88,2.88,0,0,0,.41-.56,1.57,1.57,0,0,1,1.61-.87c1.28.08,2.58-.21,3.89-.21a47.46,47.46,0,0,1,5.59.28,1.15,1.15,0,0,1,1,1.67,3.67,3.67,0,0,0-.12,1.31c0,.85-.47,1.34-1.31,1.26a13.9,13.9,0,0,1-3.45-.45c-1-.33-1.77.34-2.68.38-.22,0-.12.26-.16.4-.54,2.22-.59,4.52-.93,6.77,0,.09,0,.18,0,.28-.18,1.2-.18,1.21,1.06,1.38a9.19,9.19,0,0,1,1.63.31,1.62,1.62,0,0,1,1.1,1.06c.25.62.38,1.31,1,1.7a.32.32,0,0,1,0,.54,1.86,1.86,0,0,1-1.65.72,26.79,26.79,0,0,0-4.38-.29.6.6,0,0,0-.67.45c-.94,2.51-2,5-2.85,7.52a13.22,13.22,0,0,0-.41,1.76,4.33,4.33,0,0,1-.76,1.93c-.29.39-.21.67.34.78a15.26,15.26,0,0,0,2.24.09,30,30,0,0,1,3.54.29c.7.1,1.08.71,1.53,1.15s-.53,1.55-1.1,1.57S10.39,108.32,9.59,108.32Z"/><path class="cls-1" d="M61.93,72.19a13.41,13.41,0,0,1-5.41-.52c-1.21-.41-1.48-.54-1.58-2.15a32.78,32.78,0,0,1,.37-6.85,68,68,0,0,1,1.39-7.1,13.3,13.3,0,0,1,3.47-6.32,2,2,0,0,0,.31-.4,1.11,1.11,0,0,1,1.18-.64c.94,0,1.9-.16,2.86-.16a35.08,35.08,0,0,1,4.1.21.85.85,0,0,1,.74,1.23,2.62,2.62,0,0,0-.1,1c0,.62-.34,1-1,.92A9.89,9.89,0,0,1,65.77,51c-.7-.24-1.3.25-2,.28-.16,0-.09.19-.11.29-.4,1.64-.44,3.32-.69,5,0,.07,0,.14,0,.21-.13.88-.13.89.78,1A8.46,8.46,0,0,1,65,58a1.18,1.18,0,0,1,.8.78c.18.45.28,1,.75,1.25a.23.23,0,0,1,0,.39,1.35,1.35,0,0,1-1.21.53,20.34,20.34,0,0,0-3.22-.21.44.44,0,0,0-.49.33c-.69,1.85-1.48,3.65-2.09,5.52a8.17,8.17,0,0,0-.3,1.3,3.19,3.19,0,0,1-.56,1.42c-.21.28-.16.49.25.57a10,10,0,0,0,1.64.06,23,23,0,0,1,2.61.21c.51.08.79.53,1.12.85s-.39,1.14-.81,1.16S62.52,72.19,61.93,72.19Z"/><path class="cls-1" d="M78.69,37.26a18.42,18.42,0,0,1-7.43-.72c-1.66-.56-2-.75-2.17-3a45,45,0,0,1,.51-9.41,94.86,94.86,0,0,1,1.91-9.75,18,18,0,0,1,4.77-8.67,4.54,4.54,0,0,0,.42-.56,1.56,1.56,0,0,1,1.62-.88c1.29.07,2.61-.22,3.93-.21a46.05,46.05,0,0,1,5.63.28,1.16,1.16,0,0,1,1,1.68,3.76,3.76,0,0,0-.12,1.33c0,.85-.47,1.34-1.32,1.27A14.15,14.15,0,0,1,84,8.2c-1-.33-1.79.34-2.7.38-.23,0-.13.26-.16.41-.55,2.24-.6,4.55-1,6.82,0,.1,0,.19,0,.28-.19,1.22-.19,1.23,1.06,1.4a8.44,8.44,0,0,1,1.65.32A1.6,1.6,0,0,1,84,18.87c.25.63.38,1.32,1,1.72a.32.32,0,0,1,0,.54,1.86,1.86,0,0,1-1.67.73,26.13,26.13,0,0,0-4.42-.29.61.61,0,0,0-.67.45c-1,2.53-2,5-2.87,7.58A12.24,12.24,0,0,0,75,31.39a4.27,4.27,0,0,1-.77,1.94c-.29.39-.21.68.35.78a15.41,15.41,0,0,0,2.25.1,30.49,30.49,0,0,1,3.58.29c.71.11,1.09.72,1.54,1.16s-.53,1.56-1.11,1.59S79.5,37.26,78.69,37.26Z"/><path class="cls-1" d="M60,36.26a13.39,13.39,0,0,1-6.58.14c-1.53-.4-1.88-.55-2.34-2.89a61.48,61.48,0,0,1-1-10.13c-.08-3.57,0-7.13.22-10.65a21.14,21.14,0,0,1,2.86-9.86,3.18,3.18,0,0,0,.28-.65c.24-.68.52-1.08,1.28-1.13C55.86,1,57,.54,58.12.38a34.05,34.05,0,0,1,5-.38c.81,0,1.29.74,1.13,1.68a4.88,4.88,0,0,0,.09,1.43c.11.91-.21,1.5-1,1.52a10.08,10.08,0,0,1-3.1-.07c-.89-.24-1.51.58-2.3.74-.2,0-.07.29-.08.45-.15,2.47.16,4.94.19,7.41,0,.1,0,.21,0,.31,0,1.31,0,1.33,1.14,1.36a6.75,6.75,0,0,1,1.48.14,1.59,1.59,0,0,1,1.13,1c.31.64.52,1.37,1.15,1.71a.39.39,0,0,1,.11.58c-.33.53-.68,1-1.34,1a18.09,18.09,0,0,0-3.89.23c-.31,0-.45.15-.52.56-.45,2.82-1,5.6-1.38,8.45a16.08,16.08,0,0,0-.1,2,5.34,5.34,0,0,1-.38,2.18c-.19.44-.08.75.42.79a11.85,11.85,0,0,0,2-.17A20.83,20.83,0,0,1,61,33.11c.63,0,1.06.64,1.52,1.06S62.3,35.9,61.8,36,60.66,36.17,60,36.26Z"/><path class="cls-1" d="M81.1,117.05a13.16,13.16,0,0,1-6.52.14c-1.52-.4-1.87-.55-2.32-2.87a59.25,59.25,0,0,1-.94-10c-.08-3.53,0-7.06.21-10.56A20.92,20.92,0,0,1,74.37,84a3.1,3.1,0,0,0,.28-.64c.24-.68.51-1.07,1.27-1.12,1.13-.08,2.22-.55,3.36-.7a32.28,32.28,0,0,1,4.91-.38c.8,0,1.28.73,1.12,1.66a4.81,4.81,0,0,0,.09,1.42c.11.9-.21,1.48-1,1.5a10,10,0,0,1-3.08-.06c-.88-.24-1.49.57-2.28.73-.19,0-.06.29-.07.45-.15,2.44.15,4.9.19,7.34,0,.1,0,.21,0,.31,0,1.3,0,1.32,1.12,1.35a7.4,7.4,0,0,1,1.48.13,1.62,1.62,0,0,1,1.11,1c.3.63.52,1.35,1.14,1.69a.39.39,0,0,1,.11.58c-.33.53-.67,1-1.33,1a19.17,19.17,0,0,0-3.86.23c-.3,0-.44.16-.51.56-.45,2.8-1,5.55-1.36,8.38a15.66,15.66,0,0,0-.1,1.94,5.38,5.38,0,0,1-.38,2.16c-.19.44-.08.74.42.78a10.74,10.74,0,0,0,2-.17,21.79,21.79,0,0,1,3.13-.12c.63,0,1,.63,1.5,1s-.23,1.73-.72,1.82S81.8,117,81.1,117.05Z"/></g></g></svg>