<svg id="Laag_1" data-name="Laag 1" xmlns="http://www.w3.org/2000/svg" viewBox="0 0 324.99 69"><defs><style>.cls-1{fill:#fff;}</style></defs><title>CC Westeinde website</title><path class="cls-1" d="M335.34,45.77c.17-1.26.2-2.53.27-3.78.25-4.07.4-8.14.51-12.22a133.25,133.25,0,0,1,1.44-18c.1-.65-.16-1.59.88-1.8s1.65.54,2.09,1.32a15.93,15.93,0,0,1,1.8,6.45,26.69,26.69,0,0,1-.41,6c-.23,1.77,0,3.56-.28,5.34-.49,3.46.12,7-.36,10.4-.77,5.55-.61,11.15-1.29,16.7a1.62,1.62,0,0,0,0,.58c.41,1.41-.38,2.68-.51,4-.08.85-.54-.11-.8,0-.08.73-.09.74-.69.83a.33.33,0,0,0-.21.22,1.69,1.69,0,0,1-2,1.34c-1.45-.09-2.77.68-4.28.41a2.75,2.75,0,0,1-2.24-1.59,47.57,47.57,0,0,1-2.9-8.09,2.61,2.61,0,0,0-.46-.91,9.36,9.36,0,0,1-1.45-3.62c0-.12,0-.27,0-.35-1.46-2-1.95-4.58-3.24-6.72s-2.26-4.6-3.7-6.73a13.28,13.28,0,0,1-.72-1.46c0,.5-.08.8-.08,1.11.06,4.11.14,8.22.18,12.33,0,2.84-.68,5.61-.81,8.44-.11,2.48-.67,4.92-.57,7.42.09,2.27-1.05,3.41-3.19,3.26-.49,0-.77-.41-.88-.94a78.83,78.83,0,0,1-1.41-11c-.32-5,.09-10-.65-15a45.66,45.66,0,0,1-.24-6.4c0-3.09-.57-6.2.18-9.29a6.57,6.57,0,0,0,.37-2.49,2.15,2.15,0,0,1,1-1.85c.45-.31.95-.56,1-1.2,0-.2.2-.44.37-.36,1,.47,1.57-.35,2-.85.95-1.19,2.27-1.06,3.49-1.25.26,0,1.19-.12.79.79a.49.49,0,0,0,.19.61c2.66,2.09,4.22,5.07,6.14,7.73a74.55,74.55,0,0,1,10.28,20A.53.53,0,0,0,335.34,45.77Z" transform="translate(-17.4 -9.87)"/><path class="cls-1" d="M94.39,51.36a28.88,28.88,0,0,0,.47-5.92,23.56,23.56,0,0,1,0-5.44,16,16,0,0,1,1.93-6.06c.86-1.4,1.43-2.92,2.17-4.37,1.82-3.52,4.63-6.16,7.55-8.69a2.09,2.09,0,0,1,2.06-.45,15.68,15.68,0,0,1,3,.87c.83.47,2,.22,2.57,1.18a.66.66,0,0,0,.63.08c.75-.45,1.35,0,2,.3,2.34,1.36,4.67,2.7,5.8,5.42a8.24,8.24,0,0,0,2.33,2.5c.41.37,1.13.6.58,1.53-.21.36.3,1.17.51,1.77a35.13,35.13,0,0,1,1.64,5.19,21.87,21.87,0,0,1,0,7.13,45.81,45.81,0,0,1-1.28,7.52A22.9,22.9,0,0,1,123.69,60c-2.58,3.83-5.86,6.78-10.92,6.89-1.27,0-2.56.4-3.87.5-4.5.35-9.68-2-11.72-6.08A22,22,0,0,1,94.39,51.36Zm8-3.29a18.7,18.7,0,0,0,1.88,8.83,3.13,3.13,0,0,0,2,1.67,10,10,0,0,0,6.57-.53,10.66,10.66,0,0,0,5.71-6.14,26.15,26.15,0,0,0,2-8.91c0-1-.33-2-.35-3a17.78,17.78,0,0,0-1.89-7.45A21.1,21.1,0,0,0,113,25.76c-.48-.42-.69-.44-1.09.07a52.25,52.25,0,0,0-5.23,7.54C104,38.33,102.11,43.5,102.43,48.07Z" transform="translate(-17.4 -9.87)"/><path class="cls-1" d="M56.05,67.81c.47.4.23.94.48,1.51a11,11,0,0,0,.83-7.42c.64.39.26,1,.71,1.6C59.74,57.78,60.79,52,62,46.31s1.93-11.55,3.68-17.25c-1.9,1.53-3.86,6.22-5.37,12.78,1.11-.39,1.19.18,1,1a28.3,28.3,0,0,1-1.9,5.61c-.12.25-.22.56-.43.68-1.23.74-1.3,2-1.41,3.19,0,.2-.69,1,.35.59,0,0,.12.19.1.28-.28,1.46.34,3-.79,4.41-.58.72-.18,1.81-.25,2.73-.11,1.61.33,3.3-.77,4.73a13.12,13.12,0,0,1-1.25-7.53A90,90,0,0,1,57,43.28a50,50,0,0,1,5.62-13.77,23.3,23.3,0,0,1,6-6.43,8,8,0,0,0,.9-.74,6.34,6.34,0,0,1,9.08.08,30.11,30.11,0,0,1,8,13.19,9.45,9.45,0,0,1,0,5.4c-.79,2.75-1.33,5.62-3.47,7.76-.39.39-.29.73-.13,1.24.88,2.72,2.32,5.25,2.73,8.14.23,1.62.21,3.25.31,4.87.22,3.68.22,7.38.28,11.07,0,2.42,0,2.58-2.22,3.23-1.84.53-3.75,1.1-5.77.35a1.61,1.61,0,0,1-1.25-1.52c-.55-4.19-.66-8.45-1.67-12.57a67.15,67.15,0,0,1-1.57-9.87c0-.54,0-1.16-.8-1.13s-1.58-.14-1.8,1c-.46,2.32-1,4.63-1.49,6.93-1,4.38-1.83,8.82-3,13.15a12.93,12.93,0,0,1-2.29,4.55c-.46.59-.9,1-1.72.32A3.13,3.13,0,0,0,60.47,78c-.85.06-1.56-.5-2.4-.34-.16,0-.28-.12-.31-.29-.48-3.16-1.86-6.15-1.82-9.41C55.94,68,56,67.93,56.05,67.81Zm19.38-21.2a6.11,6.11,0,0,0,4.93-2,5.74,5.74,0,0,0,1.26-2.45c.9-2.42,2-4.87.62-7.48a31.42,31.42,0,0,0-4-6.09c-.27-.32-.54-.83-1-.75s-.58.72-.64,1.14c-.51,3.33-1.32,6.61-1.53,10a17.59,17.59,0,0,1-1,5.68C73.27,46.6,72.79,46.72,75.43,46.61Z" transform="translate(-17.4 -9.87)"/><path class="cls-1" d="M267.87,20a44.13,44.13,0,0,1-7.52-.18c-.69-.12-1,0-1,.86a97.51,97.51,0,0,1-.62,12.9c-.49,4.69-.62,9.4-.93,14.09-.08,1.17-.33,2.32-.51,3.48a4.77,4.77,0,0,0-.09,1.6,1.23,1.23,0,0,1-.42,1.37c-.05,0-.13.1-.12.14a6.09,6.09,0,0,1-.34,2.68c-.13.58,0,1.16-.1,1.72a36.89,36.89,0,0,1-.71,4.29,9.16,9.16,0,0,0-.24,2c0,.36-.07.54-.58.44a1.16,1.16,0,0,0-1.45.89,1,1,0,0,1-1.53.8,5,5,0,0,0-3.31-.15c-1,.29-1.36,0-1.54-1.08a52.31,52.31,0,0,1-.81-8.29c0-4.44.39-8.85.46-13.28a20.16,20.16,0,0,0,.34-2.81c-.36-3,.18-6,.28-9.07.11-3.45-.06-6.92.33-10.36a17.23,17.23,0,0,1,.76-2.84c.2-.68.16-1-.64-1.19a18.55,18.55,0,0,1-3.29-1.21c-1.93-.93-2.29-2-1.55-3.91.87-2.3.88-2.33,3.27-1.81a23.69,23.69,0,0,0,7.53.58,25.38,25.38,0,0,1,5.65.07,15.06,15.06,0,0,1,3.65,1,21.59,21.59,0,0,0,7.7,1.44c.72,0,1.18.28,1.26,1a6.24,6.24,0,0,0,.66,1.55,2.16,2.16,0,0,1-1.61,3.09A13.45,13.45,0,0,1,267.87,20Z" transform="translate(-17.4 -9.87)"/><path class="cls-1" d="M49.72,27.19A7.31,7.31,0,0,1,48,32.48c-1.39,1.6-1.64,3.85-3,5.48-1.73,2-3.34,4.19-5.78,5.5A17.31,17.31,0,0,1,34.49,45c-1,.2-1.23.76-1.29,1.6A57.08,57.08,0,0,1,30,62.77a26.65,26.65,0,0,0-1.09,5.68,1.89,1.89,0,0,1-3.1,1.48c-.26-.16-.33.12-.49.08-.57-.15-1.21,0-1.7-.55s-.41.81-1.07.41c-.45-.27.09-1.32-.56-1-.83.44-1.65.19-2.46.43-1.4.43-2.2-.21-2.15-1.69.11-2.91.51-5.83.39-8.73a90.85,90.85,0,0,1,.76-14.84c.72-5.85.86-11.76,1.87-17.58a54.31,54.31,0,0,1,3.12-10.59,3.85,3.85,0,0,0,.38-1.44A2,2,0,0,1,24.59,13c.61-.61,1.32-1,1.62-2s1.44-.48,2.21-.58c.62-.08,1.31.28,1.77-.46a.44.44,0,0,1,.42-.09c1.51.94,3.26.15,4.89.69a25.67,25.67,0,0,0,3.19.27A11.27,11.27,0,0,1,46,15.75,18.74,18.74,0,0,1,49.72,27.19ZM34.07,37.56c.09.15-.26.8.23,1.1s.91-.25,1.33-.47a8.25,8.25,0,0,0,2.19-1.71,14,14,0,0,0,3.77-12.22c-.54-3.51-2.24-6.25-5.82-7.47-.78-.27-1.11-.07-1.16.83-.16,2.75.06,5.51-.17,8.28C34.12,29.67,34.18,33.47,34.07,37.56Z" transform="translate(-17.4 -9.87)"/><path class="cls-1" d="M179.43,76.92a30.54,30.54,0,0,1-12.26-1.18c-2.75-.93-3.36-1.24-3.6-4.88a76.23,76.23,0,0,1,.85-15.53,153.16,153.16,0,0,1,3.16-16.1,29.8,29.8,0,0,1,7.87-14.32,5.14,5.14,0,0,0,.69-.92,2.56,2.56,0,0,1,2.67-1.45c2.14.12,4.31-.36,6.49-.36a78.07,78.07,0,0,1,9.3.47,1.93,1.93,0,0,1,1.67,2.78,6,6,0,0,0-.2,2.19c0,1.4-.78,2.22-2.18,2.09a23.32,23.32,0,0,1-5.75-.75c-1.58-.55-2.95.56-4.46.62-.38,0-.2.44-.26.68-.91,3.7-1,7.52-1.56,11.27,0,.15,0,.31,0,.46-.3,2-.31,2,1.75,2.3a16,16,0,0,1,2.73.52,2.71,2.71,0,0,1,1.83,1.77c.4,1,.62,2.18,1.7,2.83a.52.52,0,0,1,.06.89,3.05,3.05,0,0,1-2.75,1.2,43.4,43.4,0,0,0-7.3-.47,1,1,0,0,0-1.1.75C177.17,56,175.38,60,174,64.29a20.93,20.93,0,0,0-.69,2.94A7.26,7.26,0,0,1,172,70.45c-.48.63-.35,1.11.57,1.28a24.38,24.38,0,0,0,3.72.16,48.71,48.71,0,0,1,5.91.48c1.16.17,1.79,1.18,2.54,1.92.55.54-.89,2.58-1.84,2.62S180.77,76.92,179.43,76.92Z" transform="translate(-17.4 -9.87)"/><path class="cls-1" d="M215.81,62.55c-.39-1.09.2-.74.74-.4,1,.65,2,1.31,3,2A20.35,20.35,0,0,0,227,67.65c.63.13,1,.31,1,1.2.05.73-.25,2.1,1.19,2.33.32,0,.38.34.28.65s-.09.88-.66,1a11.06,11.06,0,0,1-2.17.41c-2.9,0-5.8.1-8.52-1.3-1.72-.88-3.6-1.43-5.32-2.35A14.26,14.26,0,0,1,207,64.28a15.6,15.6,0,0,0-1.75-2.16c-1.13-1.3-2.29-2.56-1.72-4.53a2.19,2.19,0,0,0-.11-1.26c-1-3-.76-6.13-1.18-9.19a6.94,6.94,0,0,1,.58-3.66,2.38,2.38,0,0,0,.12-1,9.69,9.69,0,0,1,1-4,9.71,9.71,0,0,0,.67-1.85,5.26,5.26,0,0,1,.93-2.25c1.8-2.43,3.28-5.09,5.49-7.23,2.85-2.75,5.65-5.64,9.13-7.51,1.86-1,3.74-2.29,6-2.5,1.21-.12,1.49.91,2.22,1.37s1.76-.34,2.43.62a1.28,1.28,0,0,1,.3,1.34c-.46,1.32-.88,2.65-1.46,3.92a1.92,1.92,0,0,0-.18,1.24,2.23,2.23,0,0,1-1.4,2.49,43.59,43.59,0,0,0-8.13,5,14.62,14.62,0,0,0-5.72,10.07c-.33,3.48-1.1,6.89-1.49,10.35a13.74,13.74,0,0,0,1,6.26C214.13,60.91,214.35,62.13,215.81,62.55Z" transform="translate(-17.4 -9.87)"/><path class="cls-1" d="M143.25,37.48a30.3,30.3,0,0,1,1.13-11.15c.26-.83,0-1.08-.8-1a39.59,39.59,0,0,0-4.61.37c-1.31.31-1.1,0-1.6-1.14-.88-2,.68-1.9,1.64-2.55,3-2.05,6.42-1.84,9.74-2.18a63.33,63.33,0,0,1,9.34.25A4,4,0,0,1,161.64,22c.34.59.67,1.22.27,1.84a1.92,1.92,0,0,1-2,1.13,29.14,29.14,0,0,0-3.5-.05c-.55,0-.79.18-.78.84.07,2.67,0,5.34,0,8,0,4.2-1.08,8.21-1.89,12.26a13.85,13.85,0,0,1-4.12,7.54c-1.23,1.14-1.59,2.78-2.8,3.94a10.76,10.76,0,0,1-11.11,2.16c-.21-.09-.43-.17-.65-.24-1.91-.55-2.5-1.19-2.67-3.06,0-.53.11-1.16.81-1.2a21.87,21.87,0,0,1,2.3-.27A7,7,0,0,0,142,50.4c1.2-3.08,1.06-6.32,1.26-9.52C143.3,39.79,143.25,38.7,143.25,37.48Z" transform="translate(-17.4 -9.87)"/><path class="cls-1" d="M293.73,71.24a22.14,22.14,0,0,1-10.87.22c-2.53-.65-3.11-.91-3.86-4.78A100.55,100.55,0,0,1,277.43,50c-.13-5.9,0-11.77.36-17.59a34.83,34.83,0,0,1,4.72-16.27,5.42,5.42,0,0,0,.47-1.07c.39-1.13.85-1.79,2.11-1.87,1.89-.14,3.7-.91,5.6-1.17a56,56,0,0,1,8.18-.63c1.34,0,2.13,1.22,1.87,2.78a8,8,0,0,0,.14,2.35c.19,1.51-.34,2.47-1.58,2.51a16.93,16.93,0,0,1-5.12-.11c-1.46-.4-2.49.95-3.8,1.21-.32.06-.11.49-.12.75-.25,4.07.26,8.16.31,12.24,0,.16,0,.33,0,.5,0,2.17,0,2.21,1.88,2.25a11.34,11.34,0,0,1,2.45.22,2.67,2.67,0,0,1,1.86,1.67c.5,1,.87,2.25,1.9,2.82a.64.64,0,0,1,.19,1c-.56.88-1.13,1.69-2.22,1.61a31.44,31.44,0,0,0-6.43.38c-.5.07-.74.26-.85.94-.75,4.65-1.7,9.24-2.27,13.95a26.67,26.67,0,0,0-.17,3.23,9,9,0,0,1-.62,3.59c-.32.73-.14,1.23.69,1.3a16.89,16.89,0,0,0,3.26-.28,36.35,36.35,0,0,1,5.22-.21c1,0,1.74,1,2.5,1.75.57.52-.38,2.86-1.21,3S294.89,71.08,293.73,71.24Z" transform="translate(-17.4 -9.87)"/></svg>