<svg xmlns="http://www.w3.org/2000/svg" viewBox="0 0 176.04 51.21"><defs><style>.cls-1{fill:#fff;}</style></defs><title>student_textMiddel 10</title><g id="Laag_2" data-name="Laag 2"><g id="Laag_1-2" data-name="Laag 1"><path class="cls-1" d="M172.72,17.65a29.42,29.42,0,0,1-5.19-.13c-.48-.08-.7,0-.69.6a66.22,66.22,0,0,1-.42,8.91c-.35,3.25-.43,6.5-.65,9.74-.06.81-.23,1.61-.35,2.41a3.11,3.11,0,0,0-.06,1.1.87.87,0,0,1-.29.95s-.09.07-.09.09a4.13,4.13,0,0,1-.23,1.85c-.09.41,0,.81-.07,1.2a27.26,27.26,0,0,1-.49,3,6.84,6.84,0,0,0-.17,1.36c0,.25-.05.38-.4.31a.8.8,0,0,0-1,.61.72.72,0,0,1-1.05.55,3.55,3.55,0,0,0-2.3-.1c-.71.2-.94,0-1.06-.75a36.59,36.59,0,0,1-.56-5.73c0-3.06.27-6.11.32-9.17a14.08,14.08,0,0,0,.24-1.94,41,41,0,0,1,.19-6.27c.07-2.39,0-4.78.22-7.16a12.19,12.19,0,0,1,.53-2c.14-.47.11-.68-.44-.82a12.12,12.12,0,0,1-2.27-.84c-1.34-.64-1.59-1.34-1.07-2.7.6-1.58.6-1.61,2.25-1.25a16.12,16.12,0,0,0,5.21.4,16.94,16.94,0,0,1,3.9.06,10.06,10.06,0,0,1,2.52.71,15,15,0,0,0,5.33,1c.49,0,.81.19.86.69a4.43,4.43,0,0,0,.46,1.07,1.49,1.49,0,0,1-1.11,2.14A9.71,9.71,0,0,1,172.72,17.65Z"/><path class="cls-1" d="M40.56,9.77a36.24,36.24,0,0,1-6.22-.15c-.57-.1-.83,0-.81.71A80.63,80.63,0,0,1,33,21c-.41,3.87-.52,7.76-.78,11.64-.06,1-.27,1.92-.42,2.88a4.15,4.15,0,0,0-.07,1.32A1,1,0,0,1,31.4,38s-.11.08-.1.11A5.06,5.06,0,0,1,31,40.29c-.12.48,0,1-.09,1.42a30.39,30.39,0,0,1-.59,3.54,8,8,0,0,0-.2,1.63c0,.3,0,.45-.47.37a1,1,0,0,0-1.2.73.86.86,0,0,1-1.26.66,4.09,4.09,0,0,0-2.74-.12c-.86.24-1.13,0-1.28-.9a43.42,43.42,0,0,1-.66-6.85c0-3.66.32-7.31.38-11a16.19,16.19,0,0,0,.28-2.31c-.3-2.51.15-5,.23-7.5.09-2.85-.05-5.72.27-8.56a14.54,14.54,0,0,1,.63-2.35c.16-.56.13-.81-.53-1a14.44,14.44,0,0,1-2.71-1c-1.6-.77-1.9-1.61-1.28-3.23.71-1.9.72-1.93,2.69-1.5a19.28,19.28,0,0,0,6.22.48,20.8,20.8,0,0,1,4.67.07,12.24,12.24,0,0,1,3,.85A17.76,17.76,0,0,0,42.77,5c.59,0,1,.24,1,.83a4.86,4.86,0,0,0,.55,1.28A1.8,1.8,0,0,1,43,9.63,11.65,11.65,0,0,1,40.56,9.77Z"/><path class="cls-1" d="M41.79,29.15c.23-4.2.41-8.38,2.07-12.32.25-.59.54-.91,1.22-.8a9.46,9.46,0,0,0,2.31-.2c.58-.06,1.09,0,1.22.65.08.4.29.23.45.2a.49.49,0,0,1,.65.4A4.94,4.94,0,0,1,50,19.3a1.49,1.49,0,0,0,0,.47c0,4-.3,8-.16,12a46.89,46.89,0,0,0,.87,4.94,14.73,14.73,0,0,0,.61,2.92c1,2.69,2.46,3.05,4.86,2.5a5.32,5.32,0,0,0,4.11-5c.18-2.4.63-4.77.88-7.16.22-2.06.32-4.13.71-6.15.33-1.65.35-3.4,1.4-4.85a1.31,1.31,0,0,1,.92-.66.71.71,0,0,0,.74-.54c.18-.51.56-.3.63.05.21,1.1,1,1.27,1.9,1.32.42,0,.55.28.64.66a24.39,24.39,0,0,1,.45,4.34c.1,1.39.26,2.77.28,4.15s-.12,2.56-.18,3.84a50.37,50.37,0,0,0,0,8.94,8.6,8.6,0,0,1,0,3.43c-.27,1,.31,1.94.18,2.94a8.51,8.51,0,0,0,.07,2c.18,1.63-.71,2-2.41,1.79-1-.12-2.07-.27-3.11-.39-.61-.06-1.15-.21-1.28-.92a.4.4,0,0,0-.17-.26c-.86-.48-.79-1.34-.85-2.12-.13-1.65-.22-3.29-.32-4.94,0-.14.1-.34-.1-.41s-.34.08-.44.23a5.82,5.82,0,0,1-2.22,1.9,7.34,7.34,0,0,0-.94.69c-.4.3-.68.92-1.35.45,0,0-.2,0-.29.06a6.85,6.85,0,0,1-4.69.66c-.15,0-.26-.12-.43,0A1.23,1.23,0,0,1,48.78,46c-.05-.05-.09-.14-.15-.15-1.61-.28-1.67-.34-2.74-1.6a9,9,0,0,1-1.58-1.77,19.66,19.66,0,0,1-1.78-5.65C42.11,34.27,42.22,31.68,41.79,29.15Z"/><path class="cls-1" d="M142.65,35.69c.11-.85.14-1.71.19-2.55.16-2.74.26-5.49.33-8.24a91,91,0,0,1,1-12.11c.07-.43-.11-1.07.59-1.21s1.11.36,1.41.89a10.93,10.93,0,0,1,1.22,4.35,18.11,18.11,0,0,1-.28,4c-.15,1.2,0,2.41-.19,3.61-.33,2.33.08,4.7-.24,7-.53,3.74-.41,7.52-.87,11.26a1,1,0,0,0,0,.39c.28,1-.25,1.81-.34,2.72-.05.57-.37-.08-.54,0-.06.49-.06.49-.47.55a.23.23,0,0,0-.14.15,1.15,1.15,0,0,1-1.36.91c-1-.06-1.87.46-2.89.27a1.84,1.84,0,0,1-1.51-1.07,31.33,31.33,0,0,1-1.95-5.45,1.74,1.74,0,0,0-.32-.62,6.38,6.38,0,0,1-1-2.44c0-.08,0-.18,0-.23-1-1.39-1.32-3.09-2.19-4.53s-1.52-3.11-2.49-4.55c-.17-.26-.28-.56-.49-1,0,.33,0,.54,0,.75,0,2.77.09,5.54.12,8.31,0,1.92-.46,3.79-.54,5.69-.08,1.67-.46,3.32-.39,5,.06,1.53-.71,2.3-2.15,2.19-.33,0-.52-.27-.59-.62a51.16,51.16,0,0,1-1-7.39c-.22-3.37,0-6.75-.44-10.1a31.21,31.21,0,0,1-.17-4.32c0-2.08-.38-4.18.12-6.26a4.23,4.23,0,0,0,.25-1.68A1.46,1.46,0,0,1,126,18.2c.3-.21.63-.38.66-.81,0-.14.14-.3.25-.24.67.31,1.06-.24,1.33-.57.64-.81,1.53-.72,2.35-.85.18,0,.8-.08.53.54a.33.33,0,0,0,.13.41c1.79,1.4,2.84,3.42,4.14,5.21a50.23,50.23,0,0,1,6.93,13.51A.37.37,0,0,0,142.65,35.69Z"/><path class="cls-1" d="M2.57,45.45C1.8,45.17,1.2,44.88,1,44.06a.74.74,0,0,1,.44-1A5.56,5.56,0,0,0,4,40.42,3.41,3.41,0,0,0,4.1,39a19.92,19.92,0,0,0-.74-6.42,2.8,2.8,0,0,1,0-1.85c0-.09.09-.22,0-.28-.74-1.25-.53-2.69-.84-4C2,23.92,1.16,21.52.67,19,.09,16.15-.39,13.25.46,10.35a17.51,17.51,0,0,1,2.6-5.09,21.56,21.56,0,0,0,1.42-2C4.84,2.63,5.55,2.39,6.09,2A9.68,9.68,0,0,1,9.35.11a1.52,1.52,0,0,1,2,.69A3.6,3.6,0,0,0,13,2.45c.24.07.25,1.15,0,1.37a9.44,9.44,0,0,0-2.23,3.81A23.69,23.69,0,0,1,9.5,10.5a4.08,4.08,0,0,0-.6,2.4c.15,1.77,0,3.56.28,5.33a17.37,17.37,0,0,0,1,3.86,41.07,41.07,0,0,1,2,8.53,29.81,29.81,0,0,1-.38,9,7.76,7.76,0,0,1-1.59,3.13A16.51,16.51,0,0,1,7.85,45.5a4.34,4.34,0,0,1-2,1.08c-.73.17-1.48.24-2.22.35a1.53,1.53,0,0,1-1.37-.64C1.87,45.94,1.7,45.51,2.57,45.45Z"/><path class="cls-1" d="M76.54,25.07c-.35.15-.33.45-.56.66-.21-.44.13-.82,0-1.22-.48.35-.23,1-.6,1.4,0-.09-.09-.14-.08-.18a37.65,37.65,0,0,1,1.92-8.5c.41-1,1.24-1.72,1.71-2.69a34.33,34.33,0,0,0,1.46-3.21C81,9.62,81.72,9.19,83.5,9.47a2.44,2.44,0,0,0,1.37-.14,2.28,2.28,0,0,1,2.24.28c.83.54,1.91.64,2.55,1.56a15.42,15.42,0,0,1,1,1.43,17.48,17.48,0,0,1,1.9,6.82A30.73,30.73,0,0,1,91.13,31.1a14.61,14.61,0,0,1-3.91,6.08c-1.08,1-2.12,2.1-3.28,3a4.9,4.9,0,0,1-2,1,9.72,9.72,0,0,0-2.49.65.94.94,0,0,1-.85,0,2.69,2.69,0,0,0-2.48.18c-.48.21-.59,0-.69-.37a17.19,17.19,0,0,1-.22-5,33,33,0,0,0,.25-3.83c-.1-1.79.53-3.44.71-5.17A8.18,8.18,0,0,0,76.54,25.07ZM88,25.14a1.28,1.28,0,0,1-.07-.26,2.42,2.42,0,0,1,0-.47,12.07,12.07,0,0,0-.1-6.2,8.2,8.2,0,0,0-.62-2.33c-.11-.17-.24-.38-.49-.32s-.17.29-.2.46c-.22,1.23-.31,2.48-.6,3.71a101.53,101.53,0,0,0-2.4,13.39.81.81,0,0,1-.27.63c-.21-.23,0-.54-.17-.79-.72,2.17-.72,2.17-.4,3,.27-.19,0-.65.45-.79,0,.71.29.56.66.23a7.63,7.63,0,0,0,1.6-1.61c1.72-2.83,3.42-5.67,3-9.15C88.27,24.7,88.32,25,88,25.14Z"/><path class="cls-1" d="M107,46.55a20.61,20.61,0,0,1-8.27-.8c-1.85-.62-2.27-.83-2.43-3.29A51,51,0,0,1,96.88,32,104.66,104.66,0,0,1,99,21.13a20.25,20.25,0,0,1,5.31-9.66,3.61,3.61,0,0,0,.47-.62,1.73,1.73,0,0,1,1.8-1c1.44.08,2.9-.24,4.37-.23a50.44,50.44,0,0,1,6.27.31,1.3,1.3,0,0,1,1.13,1.88,4.09,4.09,0,0,0-.14,1.47c0,.95-.52,1.5-1.46,1.41a15.41,15.41,0,0,1-3.88-.5c-1.07-.38-2,.37-3,.42-.25,0-.13.29-.17.45-.62,2.5-.67,5.07-1.06,7.6,0,.1,0,.21,0,.31-.2,1.35-.2,1.37,1.19,1.55a10.68,10.68,0,0,1,1.84.36,1.82,1.82,0,0,1,1.23,1.18c.27.7.42,1.48,1.15,1.91a.36.36,0,0,1,0,.61,2.07,2.07,0,0,1-1.85.81,29,29,0,0,0-4.93-.32.65.65,0,0,0-.74.5c-1.06,2.82-2.27,5.58-3.2,8.44a14.77,14.77,0,0,0-.47,2,4.77,4.77,0,0,1-.85,2.16c-.32.43-.23.76.39.87a17.43,17.43,0,0,0,2.5.11,31.25,31.25,0,0,1,4,.32c.78.12,1.21.8,1.71,1.29s-.59,1.74-1.24,1.77S107.9,46.55,107,46.55Z"/></g></g></svg>